<?xml version="1.0" encoding="utf-8"?>
<!-- Generator: Adobe Illustrator 13.0.0, SVG Export Plug-In . SVG Version: 6.00 Build 14948)  -->
<!DOCTYPE svg PUBLIC "-//W3C//DTD SVG 1.0//EN" "http://www.w3.org/TR/2001/REC-SVG-20010904/DTD/svg10.dtd">
<svg version="1.0" id="Layer_1" xmlns="http://www.w3.org/2000/svg" xmlns:xlink="http://www.w3.org/1999/xlink" x="0px" y="0px"
	 width="41.516px" height="20.527px" viewBox="0 0 41.516 20.527" enable-background="new 0 0 41.516 20.527" xml:space="preserve">
<g>
	<path fill="#FFFFFF" stroke="#999999" stroke-width="0.9819" d="M0.491,17.283c0-4.69,0-13.726,0-13.726
		c0.023-1.801,0.516-3.066,2.725-3.066H34.34l6.584,9.776l-6.584,9.769H3.216C2.295,20.036,0.495,19.86,0.491,17.283z"/>
	<g>
		<path fill="#999999" d="M17.319,10.159c0,0.364-0.012,0.731-0.036,1.099c-0.027,0.368-0.081,0.729-0.172,1.083
			c-0.088,0.354-0.212,0.695-0.375,1.022c-0.16,0.33-0.376,0.632-0.64,0.907c-0.344,0.363-0.767,0.64-1.274,0.831
			c-0.505,0.191-1.059,0.288-1.658,0.288H9.101V4.945h4.063c0.6,0,1.153,0.096,1.658,0.288c0.508,0.191,0.931,0.47,1.274,0.833
			c0.264,0.275,0.479,0.573,0.64,0.898c0.163,0.324,0.287,0.664,0.375,1.018c0.091,0.352,0.145,0.715,0.172,1.082
			C17.308,9.433,17.319,9.798,17.319,10.159z M15.39,10.159c0-0.233-0.004-0.483-0.016-0.749c-0.008-0.266-0.038-0.529-0.088-0.789
			c-0.048-0.26-0.122-0.507-0.22-0.743c-0.101-0.235-0.24-0.447-0.428-0.633c-0.176-0.178-0.392-0.32-0.64-0.428
			c-0.251-0.107-0.531-0.162-0.835-0.162h-2.165v7.026h2.165c0.304,0,0.584-0.055,0.835-0.162c0.248-0.107,0.464-0.252,0.64-0.428
			c0.188-0.188,0.327-0.397,0.428-0.633c0.098-0.238,0.172-0.483,0.22-0.745c0.05-0.26,0.08-0.523,0.088-0.795
			C15.386,10.65,15.39,10.397,15.39,10.159z"/>
		<path fill="#999999" d="M25.362,11.562c0,0.647-0.08,1.188-0.236,1.626c-0.159,0.436-0.379,0.838-0.663,1.201
			c-0.268,0.323-0.631,0.604-1.099,0.839c-0.465,0.235-0.992,0.354-1.582,0.354c-0.592,0-1.119-0.118-1.584-0.354
			c-0.466-0.235-0.833-0.516-1.097-0.839c-0.284-0.363-0.508-0.766-0.663-1.201c-0.158-0.438-0.236-0.979-0.236-1.626
			c0-0.649,0.078-1.192,0.236-1.63c0.155-0.436,0.379-0.837,0.663-1.198c0.264-0.324,0.631-0.605,1.097-0.839
			c0.465-0.238,0.992-0.356,1.584-0.356c0.59,0,1.117,0.118,1.582,0.356c0.468,0.233,0.831,0.515,1.099,0.839
			c0.284,0.361,0.504,0.763,0.663,1.198C25.282,10.369,25.362,10.912,25.362,11.562z M23.492,11.562
			c0-0.365-0.036-0.715-0.104-1.055c-0.07-0.34-0.218-0.631-0.444-0.875c-0.127-0.14-0.289-0.254-0.487-0.348
			c-0.195-0.094-0.419-0.14-0.675-0.14s-0.481,0.046-0.68,0.14c-0.195,0.094-0.359,0.208-0.485,0.348
			c-0.226,0.244-0.373,0.535-0.441,0.875c-0.067,0.34-0.104,0.689-0.104,1.055c0,0.362,0.036,0.714,0.104,1.051
			c0.068,0.34,0.216,0.632,0.441,0.877c0.126,0.138,0.29,0.254,0.485,0.346c0.198,0.094,0.424,0.14,0.68,0.14
			s0.479-0.046,0.675-0.14c0.198-0.092,0.36-0.208,0.487-0.346c0.227-0.245,0.374-0.537,0.444-0.877
			C23.456,12.275,23.492,11.924,23.492,11.562z"/>
		<path fill="#999999" d="M26.347,15.39v-2.298h2.239v2.298H26.347z"/>
	</g>
	<polygon fill="#999999" points="33.129,2.037 38.656,10.327 33.129,18.617 30.372,18.617 35.897,10.327 30.372,2.037 	"/>
</g>
</svg>
