<?xml version="1.0" encoding="utf-8"?>
<!-- Generator: Adobe Illustrator 13.0.0, SVG Export Plug-In . SVG Version: 6.00 Build 14948)  -->
<!DOCTYPE svg PUBLIC "-//W3C//DTD SVG 1.0//EN" "http://www.w3.org/TR/2001/REC-SVG-20010904/DTD/svg10.dtd">
<svg version="1.0" id="Layer_1" xmlns="http://www.w3.org/2000/svg" xmlns:xlink="http://www.w3.org/1999/xlink" x="0px" y="0px"
	 width="19.5px" height="19.498px" viewBox="0 0 19.5 19.498" enable-background="new 0 0 19.5 19.498" xml:space="preserve">
<g>
	<circle fill="#00CC00" cx="9.75" cy="9.748" r="9.75"/>
	
		<ellipse fill="none" stroke="#FFFFFF" stroke-width="0.2809" stroke-dasharray="0.4791" cx="9.663" cy="12.322" rx="7.096" ry="2"/>
	<g>
		<circle fill="#FFFFFF" cx="7.313" cy="5.513" r="0.737"/>
		<path fill="#FFFFFF" d="M9.64,7.978L8.754,7.812C8.75,7.807,8.745,7.8,8.739,7.794l-0.927-1C7.764,6.741,7.695,6.671,7.577,6.653
			L6.958,6.572C6.747,6.57,6.618,6.653,6.542,6.711c-0.035,0.027-0.217,0.15-0.363,0.321C6.128,7.093,6.028,7.22,5.935,7.383
			C5.871,7.494,5.375,8.49,5.366,8.515L4.044,12.18c-0.093,0.258,0.021,0.537,0.257,0.623l0.052,0.018
			c0.235,0.085,0.5-0.057,0.594-0.315l1.106-3.068C6.055,9.442,6.058,9.449,6.06,9.457l0.585,1.316
			c0.003,0.005,0.006,0.01,0.008,0.016v1.583c0,0.274,0.223,0.496,0.496,0.496c0.274,0,0.494-0.222,0.494-0.496v-1.66
			c-0.007-0.111-0.052-0.237-0.071-0.271L6.966,9.055c-0.002-0.006-0.005-0.01-0.008-0.014l0.121-0.346l0.719,0.434
			c0.148,0.089,0.354,0.021,0.458-0.154c0.105-0.174,0.069-0.388-0.079-0.477l-0.77-0.463C7.403,8.027,7.386,8.022,7.366,7.982
			C7.348,7.941,7.354,7.901,7.354,7.901l0.096-0.277l0.647,0.697c0.061,0.071,0.113,0.136,0.2,0.153l1.207,0.227
			c0.17,0.031,0.339-0.104,0.375-0.304C9.917,8.198,9.809,8.011,9.64,7.978z"/>
	</g>
	<g>
		<g>
			<path fill="#00CC00" d="M12.288,13.146c-0.325,0-0.589-0.268-0.589-0.597v-1.695c0-0.066,0.013-0.132,0.035-0.195
				c-0.004-0.048,0.013-0.12,0.043-0.186l0.585-1.339l-0.437-1.251l-0.578,0.64c-0.065,0.074-0.142,0.119-0.227,0.133L9.916,8.89
				c-0.004,0-0.01,0-0.015,0c-0.257,0-0.426-0.161-0.465-0.383c-0.027-0.132,0-0.268,0.07-0.371c0.06-0.086,0.144-0.144,0.241-0.16
				l0.903-0.173l0.879-1.002c0.053-0.06,0.127-0.105,0.214-0.134l1.205-0.442l0.009-0.002l0.095-0.027
				c0.03-0.002,0.06-0.002,0.086-0.002c0.103,0,0.16,0.014,0.214,0.043l1.22,0.624c0.06,0.033,0.113,0.076,0.154,0.127
				c0.072,0.068,0.115,0.169,0.115,0.274L14.82,8.519c-0.006,0.224-0.205,0.401-0.454,0.401c-0.05,0-0.099-0.008-0.143-0.021
				l1.212,3.438c0.107,0.312-0.03,0.647-0.311,0.751c-0.106,0.037-0.167,0.049-0.225,0.049c-0.234,0-0.45-0.164-0.536-0.407
				l-1.025-2.899l-0.475,1.092l0.008,1.626C12.872,12.879,12.611,13.146,12.288,13.146L12.288,13.146z M13.784,7.579l0.129,0.376
				l0.004-0.333L13.784,7.579L13.784,7.579z"/>
			<path fill="#FFFFFF" d="M13.138,6.276c0.059,0,0.117,0.014,0.172,0.042l1.221,0.623c0.049,0.026,0.092,0.062,0.125,0.105
				c0.059,0.058,0.094,0.134,0.094,0.216l-0.02,1.254C14.726,8.69,14.564,8.83,14.363,8.83c-0.002,0-0.004,0-0.006,0
				c-0.127-0.002-0.24-0.061-0.303-0.148c0,0.006,0,0.012,0,0.018l1.295,3.67c0.092,0.264-0.021,0.548-0.256,0.635l-0.053,0.018
				c-0.046,0.018-0.094,0.025-0.141,0.025c-0.19,0-0.376-0.135-0.451-0.347l-1.1-3.118l-0.568,1.305v1.662
				c0,0.279-0.223,0.506-0.494,0.506c-0.273,0-0.496-0.227-0.496-0.506v-1.695c0-0.058,0.01-0.112,0.027-0.163
				c0.002-0.06,0.016-0.119,0.041-0.177l0.586-1.343c0.002-0.006,0.004-0.011,0.006-0.015l-0.49-1.447l-0.682,0.752
				c-0.004,0.003-0.008,0.004-0.01,0.009c-0.043,0.051-0.1,0.087-0.164,0.1L11.099,8.57c-0.018,0.005-0.035,0.008-0.053,0.01
				L9.899,8.801C9.883,8.804,9.866,8.806,9.85,8.806c-0.152,0-0.292-0.13-0.326-0.314c-0.037-0.204,0.07-0.396,0.24-0.428
				l0.902-0.173c0-0.003,0.002-0.006,0.006-0.007l0.926-1.021c0.047-0.054,0.109-0.089,0.174-0.108
				c0.018-0.015,0.037-0.026,0.061-0.035l1.146-0.406c0.029-0.013,0.057-0.021,0.088-0.028c0.012-0.002,0.023-0.003,0.035-0.006
				C13.114,6.277,13.125,6.276,13.138,6.276 M13.996,8.482l0.012-0.858L13.64,7.437L13.996,8.482 M13.138,6.095h-0.02l-0.091,0.012
				c-0.044,0.009-0.082,0.021-0.122,0.04l-1.135,0.401c-0.031,0.012-0.06,0.026-0.085,0.043c-0.09,0.033-0.167,0.085-0.226,0.152
				l-0.889,0.98L9.729,7.885C9.463,7.936,9.29,8.222,9.345,8.524c0.05,0.269,0.262,0.463,0.504,0.463
				c0.028,0,0.055-0.002,0.083-0.008l1.147-0.221c0.013-0.001,0.04-0.006,0.067-0.013c0.096-0.018,0.188-0.074,0.26-0.158
				l0.479-0.528l0.369,1.09l-0.563,1.293c-0.031,0.069-0.049,0.142-0.055,0.216c-0.02,0.063-0.029,0.129-0.029,0.196v1.695
				c0,0.379,0.305,0.688,0.678,0.688c0.372,0,0.676-0.309,0.676-0.688v-1.624l0.369-0.848l0.946,2.684
				c0.1,0.28,0.35,0.468,0.622,0.468c0.07,0,0.139-0.013,0.205-0.037l0.045-0.016c0.331-0.122,0.494-0.51,0.37-0.866l-1.163-3.298
				c0.309-0.001,0.548-0.217,0.555-0.491l0.02-1.255c0-0.132-0.053-0.254-0.148-0.348c-0.032-0.044-0.095-0.098-0.166-0.136
				l-1.225-0.625C13.314,6.117,13.226,6.095,13.138,6.095L13.138,6.095z"/>
		</g>
		<g>
			<path fill="#00CC00" d="M12.116,6.216h-0.021c-0.348,0-0.632-0.28-0.644-0.64c-0.013-0.364,0.267-0.67,0.625-0.683
				c0.37,0,0.654,0.282,0.664,0.64c0.006,0.181-0.058,0.352-0.179,0.479C12.445,6.138,12.287,6.209,12.116,6.216L12.116,6.216z"/>
			<path fill="#FFFFFF" d="M12.093,4.801c0.398,0,0.727,0.322,0.738,0.73c0.014,0.414-0.305,0.762-0.713,0.775
				c-0.008,0-0.016,0-0.023,0c-0.396,0-0.721-0.321-0.734-0.728c-0.014-0.415,0.305-0.763,0.711-0.777
				C12.079,4.802,12.086,4.801,12.093,4.801 M12.093,4.983c0.002,0-0.018,0-0.015,0c-0.307,0.011-0.547,0.276-0.536,0.59
				c0.01,0.31,0.253,0.552,0.553,0.552c0.324-0.01,0.565-0.274,0.555-0.588C12.641,5.226,12.397,4.983,12.093,4.983L12.093,4.983z"
				/>
		</g>
	</g>
</g>
</svg>
