<?xml version="1.0" encoding="utf-8"?>
<!-- Generator: Adobe Illustrator 13.0.0, SVG Export Plug-In . SVG Version: 6.00 Build 14948)  -->
<!DOCTYPE svg PUBLIC "-//W3C//DTD SVG 1.0//EN" "http://www.w3.org/TR/2001/REC-SVG-20010904/DTD/svg10.dtd">
<svg version="1.0" id="Layer_1" xmlns="http://www.w3.org/2000/svg" xmlns:xlink="http://www.w3.org/1999/xlink" x="0px" y="0px"
	 width="63.096px" height="63.153px" viewBox="0 0 63.096 63.153" enable-background="new 0 0 63.096 63.153" xml:space="preserve">
<path id="path2451" fill="#999999" d="M26.978,62.985c-0.496-0.068-1.712-0.326-2.703-0.573
	C12.766,59.547,3.837,50.764,0.805,39.323C0.108,36.7,0.006,35.731,0,31.666c-0.006-4.075,0.089-5.015,0.77-7.548
	c1.54-5.733,4.165-10.427,8.185-14.634c6.594-6.902,15.796-10.258,25.586-9.332c9.541,0.903,18.09,6.004,23.371,13.946
	c6.217,9.35,6.902,22.074,1.727,32.095C55.205,54.78,46.563,61.054,36.836,62.75C34.475,63.162,29.169,63.289,26.978,62.985z
	 M36.587,56.926c9.759-2.014,17.491-9.199,20.032-18.617c0.898-3.33,0.914-9.766,0.031-13.104
	C54.54,17.225,48.8,10.586,41.479,7.654c-3.647-1.46-5.967-1.889-10.147-1.875c-4.346,0.015-7.218,0.633-10.785,2.323
	c-9.42,4.463-15.555,14.63-14.944,24.763C6.549,48.555,21.374,60.067,36.587,56.926z M19.134,40.791
	c-2.878-1.021-5.086-4.017-5.475-7.431c-0.577-5.062,1.327-8.992,5.209-10.754c2.104-0.956,5.925-0.933,8.195,0.048
	c1.378,0.596,3.968,2.935,3.968,3.583c0,0.107-0.894,0.635-1.987,1.174l-1.988,0.98l-1.061-1.061
	c-0.591-0.592-1.497-1.143-2.047-1.246c-1.365-0.256-2.999,0.351-3.738,1.389c-1.223,1.718-1.307,6.208-0.149,7.974
	c0.6,0.916,1.609,1.56,2.562,1.633c2,0.152,2.505-0.02,3.689-1.266l1.194-1.254l1.538,0.846c0.846,0.467,1.66,0.957,1.81,1.093
	c0.519,0.468-1.861,2.896-3.775,3.854c-1.627,0.812-2.139,0.92-4.278,0.898C21.463,41.239,19.813,41.032,19.134,40.791z
	 M37.454,40.791c-2.838-1.007-5.009-3.908-5.476-7.32c-0.676-4.942,1.316-9.096,5.21-10.864c2.26-1.026,6.09-0.947,8.379,0.173
	c1.416,0.693,3.783,2.869,3.783,3.478c0,0.104-0.928,0.637-2.062,1.186l-2.063,0.999l-1.066-1.166
	c-0.96-1.047-1.215-1.165-2.531-1.165c-1.811,0-2.975,0.711-3.604,2.2c-0.562,1.334-0.633,4.603-0.133,6.09
	c1.02,3.026,4.739,3.744,6.853,1.32l0.948-1.088l1.83,0.924c1.006,0.508,1.83,1.01,1.83,1.113c0,0.688-2.365,2.889-3.955,3.684
	c-1.627,0.812-2.14,0.92-4.277,0.899C39.783,41.239,38.133,41.032,37.454,40.791z"/>
</svg>
