<?xml version="1.0" encoding="utf-8"?>
<!-- Generator: Adobe Illustrator 13.0.0, SVG Export Plug-In . SVG Version: 6.00 Build 14948)  -->
<!DOCTYPE svg PUBLIC "-//W3C//DTD SVG 1.0//EN" "http://www.w3.org/TR/2001/REC-SVG-20010904/DTD/svg10.dtd">
<svg version="1.0" id="Layer_1" xmlns="http://www.w3.org/2000/svg" xmlns:xlink="http://www.w3.org/1999/xlink" x="0px" y="0px"
	 width="80.132px" height="29.048px" viewBox="0 0 80.132 29.048" enable-background="new 0 0 80.132 29.048" xml:space="preserve">
<g>
	<g>
		<path fill="#FFFFFF" stroke="#231F20" stroke-width="0.24" d="M22.849,11.093l7.24,5.455l4.71,3.355l1.842,2.934l-13.648-8.945
			l-1.317-0.764c0,0-0.351-0.475-0.537-0.655C20.95,12.293,22.739,11.208,22.849,11.093z"/>
	</g>
	<path fill="#231F20" d="M22.051,9.592l0.3,1.38c0,0,0.239,0.6,0.72,0.36c0.48-0.24,1.77-1.171,1.77-1.171l-0.989-1.229
		c0,0-1.41-0.062-1.471,0.119C22.32,9.232,22.051,9.592,22.051,9.592z"/>
	<path fill="#FFFFFF" stroke="#231F20" stroke-width="0.24" stroke-linecap="round" stroke-linejoin="round" d="M3.321,2.531
		c0,0,6.559,0.64,7.279,0.401c0.72-0.24,1.84,0.079,2.4,0.238c0.56,0.161,3.68,0.161,4.16,0.08c0.479-0.08,1.84-0.96,2.72-0.96
		s1.76,0.801,1.359,1.36c-0.399,0.561-1.2,1.28-1.84,1.44c-0.64,0.159-1.92,0.159-2.32,0.24c-0.399,0.08-2.16,0.8-2.16,0.8
		s1.921,1.52,2.641,2.159c0.72,0.642,2.96,2.881,3.359,3.121c0.401,0.239,1.041,0.72,2.001,0.72c0.959,0,1.199,0.279,1.199,0.48
		c0,0.199-0.84,0.88-1.199,0.959c-0.36,0.08-2.44,0.72-3,0.28c0,0-0.201,0.32-0.841,0.32s-1.039-0.121-1.039-0.121
		s-0.521,0.48-1.12,0.642c-0.601,0.159-1.561,0.079-1.561,0.079s-0.16,0.561-0.8,0.561s-1.439-0.28-2.16-0.48
		c-0.72-0.2-4.12-1.04-5.159-1.56c-1.041-0.521-4.121-2.8-4.561-2.961c-0.44-0.159-2.561-0.6-2.561-0.6"/>
	<g>
		<polygon fill="#FFFFFF" stroke="#231F20" stroke-width="0.24" points="21.41,13.727 29.924,8.842 44.707,0.13 79.886,10.756 
			58.438,28.909 		"/>
		<g>
			<polygon fill="#FFFFFF" stroke="#231F20" stroke-width="0.24" stroke-dasharray="0.7678" points="26.239,13.51 45.088,2.651 
				75.289,11.935 57.64,26.01 			"/>
		</g>
	</g>
	<path fill="#231F20" d="M14.521,3.171c0,0,0.6-0.6,1.2-0.479c0.6,0.119,2.34,0.719,2.88,1.439c0.539,0.72,0.42,2.279,0.42,2.279
		l5.04,2.521l0.841,1.339l-1.061,0.62l-1.44,0.521c0,0-0.262-1.793-0.38-1.641l-5.881-2.88l-1.22-0.76c0,0,0.981-0.38,1.22-0.439
		c0.24-0.061,0.541,0.84,1.2,0.779c0.661-0.061,1.562-1.08,0.48-1.801C16.74,3.952,15.54,2.992,14.521,3.171z"/>
	<g>
		<path fill="#FFFFFF" stroke="#231F20" stroke-width="0.24" d="M20.513,11.002c0,0,1.797,0.257,2.341-0.099
			c0.543-0.355,0.685-0.534,0.686-0.693l9.01-0.999l5.728-0.788l3.354,0.87l-16.068,2.854l-1.482,0.348c0,0-0.578-0.105-0.839-0.108
			C22.98,12.385,21.581,12.292,20.513,11.002z"/>
		<circle fill="#231F20" cx="25.406" cy="11.065" r="0.6"/>
	</g>
</g>
</svg>
