<?xml version="1.0" encoding="utf-8"?>
<!-- Generator: Adobe Illustrator 13.0.0, SVG Export Plug-In . SVG Version: 6.00 Build 14948)  -->
<!DOCTYPE svg PUBLIC "-//W3C//DTD SVG 1.0//EN" "http://www.w3.org/TR/2001/REC-SVG-20010904/DTD/svg10.dtd">
<svg version="1.0" id="Layer_1" xmlns="http://www.w3.org/2000/svg" xmlns:xlink="http://www.w3.org/1999/xlink" x="0px" y="0px"
	 width="138.75px" height="29.048px" viewBox="0 0 138.75 29.048" enable-background="new 0 0 138.75 29.048" xml:space="preserve">
<g>
	<g>
		<path fill="#FFFFFF" stroke="#231F20" stroke-width="0.24" d="M22.849,11.093l7.24,5.455l4.71,3.355l1.842,2.934l-13.648-8.945
			l-1.317-0.764c0,0-0.351-0.475-0.537-0.655C20.95,12.293,22.739,11.208,22.849,11.093z"/>
	</g>
	<path fill="#231F20" d="M22.051,9.592l0.3,1.38c0,0,0.239,0.6,0.72,0.36c0.48-0.24,1.77-1.171,1.77-1.171l-0.989-1.229
		c0,0-1.41-0.062-1.471,0.119C22.32,9.232,22.051,9.592,22.051,9.592z"/>
	<path fill="#FFFFFF" stroke="#231F20" stroke-width="0.24" stroke-linecap="round" stroke-linejoin="round" d="M3.321,2.531
		c0,0,6.559,0.64,7.279,0.401c0.72-0.24,1.84,0.079,2.4,0.238c0.56,0.161,3.68,0.161,4.16,0.08c0.479-0.08,1.84-0.96,2.72-0.96
		s1.76,0.801,1.359,1.36c-0.399,0.561-1.2,1.28-1.84,1.44c-0.64,0.159-1.92,0.159-2.32,0.24c-0.399,0.08-2.16,0.8-2.16,0.8
		s1.921,1.52,2.641,2.159c0.72,0.642,2.96,2.881,3.359,3.121c0.401,0.239,1.041,0.72,2.001,0.72c0.959,0,1.199,0.279,1.199,0.48
		c0,0.199-0.84,0.88-1.199,0.959c-0.36,0.08-2.44,0.72-3,0.28c0,0-0.201,0.32-0.841,0.32s-1.039-0.121-1.039-0.121
		s-0.521,0.48-1.12,0.642c-0.601,0.159-1.561,0.079-1.561,0.079s-0.16,0.561-0.8,0.561s-1.439-0.28-2.16-0.48
		c-0.72-0.2-4.12-1.04-5.159-1.56c-1.041-0.521-4.121-2.8-4.561-2.961c-0.44-0.159-2.561-0.6-2.561-0.6"/>
	<g>
		<polygon fill="#FFFFFF" stroke="#231F20" stroke-width="0.24" points="21.41,13.727 29.924,8.842 44.707,0.13 79.886,10.756 
			58.438,28.909 		"/>
		<g>
			<polygon fill="#FFFFFF" stroke="#231F20" stroke-width="0.24" stroke-dasharray="0.7678" points="26.239,13.51 45.088,2.651 
				75.289,11.935 57.64,26.01 			"/>
			<g>
				
					<line fill="#FFFFFF" stroke="#231F20" stroke-width="0.24" stroke-dasharray="0.7678" x1="33.44" y1="16.011" x2="51.64" y2="4.61"/>
				
					<line fill="#FFFFFF" stroke="#231F20" stroke-width="0.24" stroke-dasharray="0.7678" x1="40.139" y1="18.909" x2="57.739" y2="6.609"/>
				
					<line fill="#FFFFFF" stroke="#231F20" stroke-width="0.24" stroke-dasharray="0.7678" x1="48.64" y1="22.311" x2="66.214" y2="9.085"/>
			</g>
		</g>
	</g>
	<path fill="#231F20" d="M14.521,3.171c0,0,0.6-0.6,1.2-0.479c0.6,0.119,2.34,0.719,2.88,1.439c0.539,0.72,0.42,2.279,0.42,2.279
		l5.04,2.521l0.841,1.339l-1.061,0.62l-1.44,0.521c0,0-0.262-1.793-0.38-1.641l-5.881-2.88l-1.22-0.76c0,0,0.981-0.38,1.22-0.439
		c0.24-0.061,0.541,0.84,1.2,0.779c0.661-0.061,1.562-1.08,0.48-1.801C16.74,3.952,15.54,2.992,14.521,3.171z"/>
	<g>
		<path fill="#FFFFFF" stroke="#231F20" stroke-width="0.24" d="M20.513,11.002c0,0,1.797,0.257,2.341-0.099
			c0.543-0.355,0.685-0.534,0.686-0.693l9.01-0.999l5.728-0.788l3.354,0.87l-16.068,2.854l-1.482,0.348c0,0-0.578-0.105-0.839-0.108
			C22.98,12.385,21.581,12.292,20.513,11.002z"/>
		<circle fill="#231F20" cx="25.406" cy="11.065" r="0.6"/>
	</g>
</g>
<g>
	<path fill="none" stroke="#231F20" stroke-width="0.24" stroke-linecap="round" d="M113.342,8.8c0,0,1.377,0.275,1.009-0.644
		c-0.367-0.917-1.056-2.154-1.835-2.982c-0.781-0.826-1.93-2.294-3.857-2.433c-1.926-0.138-5.752-0.534-7.16-0.199
		c-0.583,0.141-0.873,0.321-1.4,0.659c-0.527,0.336-1.284,0.895-2.18,1.82c-0.881,0.912-3.206,4.137-4.957,5.63
		c-1.04,0.889-3.396,2.876-4.621,2.876"/>
	<path fill="none" stroke="#231F20" stroke-width="0.24" stroke-linecap="round" stroke-linejoin="round" d="M103.487,5.604
		c0,0,0.949,0.918,0.919,1.314c-0.031,0.398,0.061,2.602,0.061,2.602"/>
	<path fill="none" stroke="#231F20" stroke-width="0.24" stroke-linecap="round" stroke-linejoin="round" d="M104.437,8.02
		c0,0,0.97-0.45,1.284-0.919c0.443-0.656,0.186-1.406-0.09-1.987c0,0,0.366,1.102,0.533,1.225c0.17,0.122,2.371,0.336,3.26-0.246
		c0,0,0.551-0.796,0.521-1.162"/>
	<path fill="none" stroke="#231F20" stroke-width="0.1836" d="M109.394,6.092c0,0,1.361,1.59,1.929,1.637"/>
	<path fill="none" stroke="#231F20" stroke-width="0.24" stroke-linecap="round" stroke-linejoin="round" d="M105.508,7.499
		c0,0,0.27,0.19,0.473,0.485c0.129,0.187,0.261,0.588,0.261,0.862"/>
	<path fill="none" stroke="#231F20" stroke-width="0.24" stroke-linecap="round" stroke-linejoin="round" d="M105.997,7.985
		c0,0,2.02,0.311,2.356-0.088s0.489-0.551,0.489-0.551"/>
	<g>
		<polygon fill="#FFFFFF" stroke="#231F20" stroke-width="0.1836" stroke-dasharray="0.5874" points="132.181,20.268 
			138.581,13.764 125.18,9.275 113.99,2.473 106.384,7.537 118.243,14.974 		"/>
		<line fill="none" stroke="#231F20" stroke-width="0.1836" x1="118.243" y1="14.974" x2="125.18" y2="9.275"/>
	</g>
	<path fill="none" stroke="#231F20" stroke-width="0.24" stroke-linecap="round" stroke-linejoin="round" d="M103.152,9.444
		c0,0,2.891,0.182,3.305,0c0.412-0.185,1.882-1.01,2.433-1.195c0.551-0.183,2.387-0.642,3.028-0.504
		c0.645,0.136,1.125,0.46,1.262,0.71c0.14,0.254,0.574,1.285-0.32,1.859s-1.699,0.964-2.456,0.964s-3.028,0.505-3.512,0.735
		c-0.481,0.229-3.281,2.387-3.672,2.731c-0.39,0.345-2.777,1.951-3.281,2.042c-0.506,0.092-2.755,0.254-3.03,0.321
		c-0.274,0.069-2.869,1.032-2.869,1.032"/>
	<path fill="#FFFFFF" d="M103.009,9.543c0,0,0.422,0.291,1.06,0.314c0.773,0.025,1.88,0.114,2.091,0.021
		c0.384-0.169,1.713-0.998,2.224-1.169c0.514-0.172,2.571-0.712,3.283-0.666c0.61,0.04,0.974,0.223,1.103,0.459
		c0.126,0.234,0.465,1.491-0.361,1.89c-0.468,0.225-0.595,0.444-1.102,0.611c-0.422,0.142-1.188,0.092-1.521,0.092
		c-0.706,0-2.851,0.626-3.298,0.839c-0.448,0.213-3.052,2.22-3.415,2.541c-0.362,0.318-2.582,1.813-3.052,1.898
		c-0.469,0.085-2.562,0.234-2.817,0.3c-0.255,0.063-2.668,0.961-2.668,0.961l-5.052-4.299c0,0,2.96-1.622,3.586-2.162
		c0.626-0.542,3.956-4.325,4.411-4.952c0.457-0.626,2.021-2.22,2.449-2.305c0.426-0.086,2.844,1.366,3.387,2.049
		c0.539,0.684,0.824,0.854,0.852,1.139C104.197,7.388,102.874,8.823,103.009,9.543z"/>
	<path fill="#FFFFFF" stroke="#231F20" stroke-width="0.24" stroke-linecap="round" stroke-linejoin="round" d="M112.253,8.06
		c0,0-1.716,0.316-1.805,0.677c-0.091,0.359-0.251,1.165,0.416,1.572c0,0,1.578-0.044,1.822-0.398c0,0,0.195-0.627,0.042-1.129
		C112.574,8.282,112.253,8.06,112.253,8.06z"/>
</g>
</svg>
