<?xml version="1.0" standalone="no"?>
<!DOCTYPE svg PUBLIC "-//W3C//DTD SVG 1.1//EN" "http://www.w3.org/Graphics/SVG/1.1/DTD/svg11.dtd" >
<svg xmlns="http://www.w3.org/2000/svg">
<metadata>
This is a custom SVG webfont generated by Font Squirrel.
Foundry     : Magenta Ltd
Foundry URL : httpwwwmagentagr
</metadata>
<defs>
<font id="webfontAhGmSoXw" horiz-adv-x="748" >
<font-face units-per-em="1000" ascent="800" descent="-200" />
<missing-glyph horiz-adv-x="270" />
<glyph unicode=" "  horiz-adv-x="270" />
<glyph unicode="&#x09;" horiz-adv-x="270" />
<glyph unicode="&#xa0;" horiz-adv-x="270" />
<glyph unicode="!" horiz-adv-x="281" d="M138 186q71 0 71 -71q0 -43 -30 -77q-32 -38 -81 -38q-39 0 -59.5 21t-20.5 52q0 43 31 76q35 37 89 37zM78 309l70 328q10 50 42 79q28 26 61 26q27 0 45 -19t18 -54q0 -15 -4 -32l-70 -328q-9 -44 -38.5 -68.5t-62.5 -24.5q-27 0 -45.5 17.5t-18.5 49.5q0 13 3 26z" />
<glyph unicode="&#x22;" horiz-adv-x="435" d="M348 675q7 32 31 49.5t51 17.5q56 0 56 -51q0 -7 -2 -16l-39 -188q-7 -32 -31 -49.5t-52 -17.5q-56 0 -56 51q0 8 2 16zM104 487l39 188q7 32 31 49.5t52 17.5q57 0 57 -51q0 -8 -2 -16l-40 -188q-6 -32 -32 -51q-22 -16 -50 -16q-57 0 -57 51q0 8 2 16z" />
<glyph unicode="#" horiz-adv-x="629" d="M279 311h88l41 113h-90zM212 424q-45 0 -57 3q-25 7 -25 34q0 8 2 19q9 39 50 48q13 3 69 3l57 162q27 73 79 73q36 0 36 -40q0 -15 -7 -33l-59 -162h89l59 162q26 73 75 73q36 0 36 -42q0 -14 -6 -31l-59 -162q44 0 58 -4q29 -8 29 -36q0 -8 -3 -18q-7 -37 -52 -46 q-15 -3 -70 -3l-41 -113q43 0 55 -3q27 -7 27 -34q0 -7 -2 -16q-8 -41 -48 -50q-13 -4 -70 -4l-59 -162q-18 -49 -73 -49q-38 0 -38 28q0 7 3 14l61 169h-91l-59 -162q-19 -52 -74 -52q-37 0 -37 29q0 8 4 16l61 169q-43 0 -54 3q-25 7 -25 33q0 8 2 17q8 40 47 50 q15 4 69 4z" />
<glyph unicode="$" horiz-adv-x="630" d="M273 155l32 149q-96 23 -147 79q-46 51 -46 118q0 93 79 169q84 81 212 94q1 8 7 35q9 43 43 43q24 0 24 -28q0 -5 -2 -10l-7 -40q52 0 98 -22q56 -27 56 -74q0 -37 -25 -69q-27 -35 -62 -35q-11 0 -45 17.5t-57 19.5l-30 -144q183 -55 183 -199q0 -100 -86 -185 t-197 -87q-3 -11 -9.5 -43.5t-38.5 -32.5q-27 0 -27 24q0 5 1 11q2 9 8 41q-142 0 -195 57q-20 21 -20 51q0 38 30.5 70t71.5 32q17 0 63.5 -20.5t85.5 -20.5zM341 473l27 128q-40 -8 -62.5 -28.5t-22.5 -44.5q0 -42 58 -55zM339 155q28 0 46 25q16 22 16 51q0 45 -34 56z " />
<glyph unicode="%" horiz-adv-x="787" d="M716 653l-512 -642q-24 -31 -61 -31q-50 0 -50 44q0 29 30 67l500 626q30 37 66 37q21 0 35 -13t14 -34q0 -26 -22 -54zM559 129q22 0 36 15.5t14 34.5q0 33 -32 33q-24 0 -38 -15.5t-14 -34.5q0 -33 34 -33zM319 742q64 0 99 -39q31 -35 31 -91q0 -79 -54 -143 q-60 -70 -149 -70q-64 0 -99 38q-31 34 -31 89q0 80 55 144q60 72 148 72zM291 612q-23 0 -37 -15.5t-14 -34.5q0 -33 33 -33q23 0 36.5 15.5t13.5 34.5q0 33 -32 33zM605 342q64 0 99 -39q32 -36 32 -93q0 -79 -54 -140q-59 -69 -149 -69q-66 0 -102 39q-32 35 -32 91 q0 78 56 142q60 69 150 69z" />
<glyph unicode="&#x26;" horiz-adv-x="793" d="M255 432q-34 50 -34 107q0 90 76.5 158t183.5 68q82 0 129 -45q43 -42 43 -108q0 -64 -40 -123q-45 -65 -124 -105l75 -113q27 22 88 85q28 26 58 26q24 0 40 -16.5t16 -40.5q0 -33 -29 -63q-33 -36 -99 -99q12 -19 42 -72q11 -18 11 -39q0 -33 -25 -58.5t-56 -25.5 q-34 0 -58 32q-19 22 -50 67q-118 -98 -241 -98q-95 0 -158.5 56.5t-63.5 138.5q0 70 50 137q56 74 166 131zM455 644q-68 0 -68 -67q0 -56 34 -96q32 18 56.5 55t24.5 67q0 41 -47 41zM428 172l-106 147q-111 -59 -111 -126q0 -33 28 -54.5t68 -21.5q66 0 121 55z" />
<glyph unicode="'" horiz-adv-x="361" d="M382 619l-143 -180q-38 -47 -83 -47q-25 0 -42 16t-17 41q0 34 31 73l121 153q53 67 109 67q54 0 54 -52q0 -33 -30 -71z" />
<glyph unicode="(" horiz-adv-x="313" d="M340 636q-156 -254 -156 -529q0 -84 13 -185q1 -7 1 -13q0 -34 -22 -59q-25 -31 -59 -31q-40 0 -61 45q-26 54 -26 159q0 168 58 372q59 210 138 306q42 52 87 52q36 0 46 -33q3 -9 3 -20q0 -28 -22 -64z" />
<glyph unicode=")" horiz-adv-x="313" d="M149 636q15 -79 15 -157q0 -133 -47 -274q-41 -124 -128 -283q-14 -26 -14 -50t14 -38.5t36 -14.5q40 0 80 45q84 93 147 311q60 209 60 381q0 93 -20.5 145t-65.5 52q-31 0 -55 -26.5t-24 -66.5q0 -12 2 -24z" />
<glyph unicode="*" d="M386 548l-43 17q-21 12 -21 34q0 27 20.5 49t47.5 22q25 0 69 -42q1 24 6 70q9 42 69 42q18 0 31.5 -9.5t13.5 -25.5q0 -6 -2 -12l-20 -65q67 42 86 42t31 -14t12 -34q0 -34 -29 -52q-2 0 -59 -22l38 -31q18 -18 18 -37q0 -4 -1 -8q-4 -21 -21 -35t-37 -14q-21 0 -41 14 l-32 28l-7 -64q-2 -22 -22.5 -33t-42.5 -11q-48 0 -48 33q0 5 1 11l21 64q-63 -42 -85 -42q-41 0 -41 40q0 28 32 52z" />
<glyph unicode="+" d="M377 368l33 155q7 32 34 50q24 17 55 17q61 0 61 -52q0 -7 -1 -15l-33 -155h155q53 0 53 -55q0 -34 -24 -63t-60 -29h-156l-33 -154q-6 -32 -31.5 -49.5t-56.5 -17.5q-26 0 -43.5 13.5t-17.5 38.5q0 7 1 15l33 154h-153q-53 0 -53 54q0 34 24 63.5t60 29.5h153z" />
<glyph unicode="," horiz-adv-x="319" d="M227 58l-143 -177q-34 -42 -78 -42q-26 0 -44 16t-18 41q0 31 27 65l122 155q40 51 93 51q27 0 45 -15t18 -39q0 -26 -22 -55z" />
<glyph unicode="-" horiz-adv-x="483" d="M407 368q54 0 54 -56q0 -34 -23 -61q-25 -30 -62 -30h-253q-53 0 -53 54q0 34 24 63.5t61 29.5h252z" />
<glyph unicode="." horiz-adv-x="281" d="M138 186q71 0 71 -71q0 -43 -30 -77q-32 -38 -81 -38q-39 0 -59.5 21t-20.5 53q0 42 31 75q35 37 89 37z" />
<glyph unicode="/" d="M736 661l-480 -650q-27 -38 -67 -38q-45 0 -45 43q0 32 32 75l457 618q42 57 87 57q42 0 42 -42q0 -29 -26 -63z" />
<glyph unicode="0" d="M545 765q112 0 173 -86q56 -78 56 -202q0 -183 -105 -327q-117 -162 -297 -162q-119 0 -183 82q-57 74 -57 195q0 182 112 334q123 166 301 166zM500 596q-80 0 -139 -103q-54 -94 -54 -200q0 -64 24 -102q26 -41 77 -41q74 0 133 106q55 99 55 205q0 135 -96 135z" />
<glyph unicode="1" d="M488 587l-72 1q-55 1 -55 59q0 36 24.5 65.5t63.5 29.5h177q17 0 34 -20q13 -17 13 -31v-5l-127 -595q-10 -49 -40.5 -76t-64.5 -27q-27 0 -45 18t-18 51q0 13 3 27z" />
<glyph unicode="2" d="M547 553q0 21 -15.5 34.5t-38.5 13.5q-76 0 -118 -113q-19 -52 -71 -52q-28 0 -49 18.5t-21 48.5q0 16 6 33q45 113 131 175q76 54 163 54q82 0 138.5 -49t56.5 -132q0 -26 -6 -53q-15 -71 -70 -143q-42 -55 -117 -123l-128 -110h194q45 0 45 -58q0 -37 -20 -65 q-23 -32 -58 -32h-382q-54 0 -54 53q0 8 1 17q12 53 85 110q94 73 192 174q136 139 136 199z" />
<glyph unicode="3" d="M498 613q-34 0 -79 -25q-41 -24 -71 -58q-26 -30 -55 -30q-21 0 -35.5 17t-14.5 43q0 47 45 95q60 63 115.5 86.5t143.5 23.5q84 0 131 -48q42 -43 42 -112q0 -57 -30 -112q-31 -59 -87 -97q82 -52 82 -141q0 -98 -91 -182q-94 -87 -216 -87q-75 0 -134 33 q-65 37 -89 104q-5 16 -5 34q0 44 31 78.5t65 34.5q33 0 47 -34q18 -43 37 -60q26 -23 74 -23q44 0 73 30t29 64q0 52 -61 52q-81 0 -81 68q0 40 32.5 74.5t81.5 34.5q29 0 56 20q27 19 27 44q0 9 -2 19t-8 23.5t-19.5 22t-33.5 8.5z" />
<glyph unicode="4" d="M699 613l-62 -294h43q74 0 74 -63q0 -35 -27 -62q-29 -30 -74 -30q-34 -1 -49 -1l-17 -78q-8 -40 -39 -64q-27 -21 -60 -21q-28 0 -46.5 16.5t-18.5 46.5q0 11 2 24l17 76h-293q-53 0 -53 58q0 40 24 66l315 359q86 97 173 97q43 0 69 -26t26 -70q0 -16 -4 -34zM526 557 l-206 -238h155z" />
<glyph unicode="5" d="M447 742h260q59 0 59 -60q0 -35 -24 -63q-27 -32 -68 -32h-204l-25 -81q46 13 81 13q81 0 126 -57q41 -51 41 -133q0 -127 -87 -227q-99 -114 -255 -114q-49 0 -96 14q-57 16 -84 47q-21 23 -21 57q0 40 27 72.5t64 32.5q23 0 46 -15q38 -26 40 -27q28 -15 64 -15 q56 0 90 44q30 39 30 91q0 38 -17 63q-20 26 -54 26q-22 0 -52.5 -19.5t-64.5 -19.5q-26 0 -44 10q-22 11 -22 32q0 6 3 14l91 282q21 65 96 65z" />
<glyph unicode="6" d="M228 271q19 90 131 225q90 107 199 199q54 45 101 45q28 0 45.5 -16.5t17.5 -41.5q0 -37 -36 -72l-155 -145q20 2 39 2q87 0 137 -54q45 -50 45 -129q0 -113 -86 -199q-98 -98 -259 -98q-94 0 -144 59q-44 54 -44 144q0 39 9 81zM503 330q-50 0 -80.5 -35t-30.5 -77 q0 -31 17 -51.5t49 -20.5q55 0 91 37q33 34 33 77q0 30 -20 50t-59 20z" />
<glyph unicode="7" d="M553 587h-237q-55 0 -55 54q0 36 24 68.5t56 32.5h365q26 0 43.5 -22.5t17.5 -50.5q0 -19 -10 -33l-384 -575q-41 -61 -97 -61q-45 0 -59 39q-3 11 -3 23q0 35 31 80z" />
<glyph unicode="8" d="M282 408q-42 45 -42 105q0 93 91 172.5t207 79.5q91 0 146 -55q50 -51 50 -126q0 -104 -91 -168q60 -64 60 -147q0 -109 -94 -193q-97 -88 -234 -88q-129 0 -192 84q-40 53 -40 117q0 29 8 60q28 104 131 159zM442 342q-49 0 -81.5 -36t-32.5 -79q0 -73 80 -73 q53 0 87 36q31 33 31 75q0 33 -20 54q-23 23 -64 23zM476 473q34 0 60 31q23 29 23 63q0 53 -58 53q-36 0 -60 -28.5t-24 -61.5q0 -57 59 -57z" />
<glyph unicode="9" d="M474 765q101 0 163 -48q66 -51 66 -141q0 -26 -6 -55q-50 -236 -352 -480q-53 -42 -107 -42q-28 0 -46.5 13.5t-18.5 35.5q0 38 51 79l87 68q45 38 70 84q-39 -11 -72 -11q-73 0 -114 52q-38 48 -38 125q0 120 80 214q91 106 237 106zM448 594q-56 0 -87.5 -32.5 t-31.5 -74.5q0 -33 21 -56t58 -23q48 0 82 39q32 36 32 80q0 67 -74 67z" />
<glyph unicode=":" horiz-adv-x="281" d="M206 506q71 0 71 -72q0 -43 -29 -77q-32 -38 -82 -38q-39 0 -59.5 21t-20.5 53q0 42 33 77.5t87 35.5zM139 188q71 0 71 -71q0 -43 -29 -77q-33 -38 -82 -38q-40 0 -60.5 21t-20.5 52q0 43 32 76q35 37 89 37z" />
<glyph unicode=";" horiz-adv-x="319" d="M245 497q71 0 71 -71q0 -43 -29 -78q-33 -37 -82 -37q-40 0 -61 21t-21 53q0 42 33.5 77t88.5 35zM-29 -39l135 178q43 56 92 56q25 0 41.5 -15.5t16.5 -38.5q0 -22 -15 -43l-157 -217q-33 -46 -80 -46q-26 0 -43 16t-17 42q0 32 27 68z" />
<glyph unicode="&#x3c;" d="M250 384l403 172q28 12 53 12q27 0 43 -15t16 -38q0 -56 -72 -83l-339 -128l282 -141q43 -21 43 -60q0 -26 -21 -46t-53 -20q-25 0 -52 13l-345 171q-56 27 -56 66q0 56 98 97z" />
<glyph unicode="=" d="M694 497q65 0 65 -60q0 -33 -23 -58q-26 -27 -65 -27h-441q-61 0 -61 55q0 34 26 62t66 28h433zM641 252q66 0 66 -59q0 -33 -23 -58q-26 -28 -65 -28h-432q-68 0 -68 57q0 33 26.5 60.5t68.5 27.5h427z" />
<glyph unicode="&#x3e;" d="M339 548l346 -180q43 -22 43 -61q0 -55 -74 -86l-448 -187q-30 -12 -53 -12q-53 0 -53 46q0 57 75 87l347 140q-84 43 -273 129q-55 26 -55 70q0 28 24 49t60 21q30 0 61 -16z" />
<glyph unicode="?" horiz-adv-x="591" d="M275 185q36 0 55 -20.5t19 -52.5q0 -42 -30 -76q-33 -37 -83 -37q-40 0 -60.5 21t-20.5 52q0 43 32 76q34 37 88 37zM182 499q-60 0 -60 62q0 11 2 23q17 77 111 133q84 49 164 49q110 0 167 -54q50 -48 50 -126q0 -97 -67 -180q-70 -87 -162 -87q-3 -14 -10 -44 q-14 -62 -84 -62q-32 0 -55 16.5t-23 44.5q0 6 1 13l23 105q7 34 49 50l80 22q42 11 49 34t7 41q0 50 -56 50q-51 0 -95 -45t-91 -45z" />
<glyph unicode="@" horiz-adv-x="850" d="M80 376q33 156 175.5 273t298.5 117q153 0 233 -77q70 -67 70 -177q0 -135 -94 -248q-99 -119 -234 -119q-50 0 -50 39q0 6 1 12q-69 -41 -128 -41q-52 0 -82.5 32.5t-30.5 91.5q0 26 6 56q21 99 101 170q77 69 155 69q70 0 104 -61q9 22 29 39t42 17q30 0 30 -33 q0 -12 -5 -33q-8 -41 -39 -116q-33 -81 -43 -116q7 -2 15 -2q48 0 87.5 64.5t39.5 140.5q0 80 -48 129q-56 58 -168 58q-142 0 -240 -98q-86 -86 -115 -215q-6 -28 -6 -53q0 -94 74 -151q69 -55 172 -55q62 0 166 40q18 7 32 7q35 0 35 -33q0 -37 -44 -55 q-55 -21 -123 -37.5t-99 -16.5q-154 0 -241 74.5t-87 208.5q0 47 11 99zM552 391q0 28 -21 45t-51 17q-37 0 -67 -24q-35 -28 -45 -77q-4 -20 -4 -36q0 -57 49 -57q46 0 92.5 43t46.5 89z" />
<glyph unicode="A" horiz-adv-x="719" d="M576 646l97 -553q1 -8 1 -16q0 -36 -26.5 -57t-60.5 -21q-58 0 -69 49q-10 34 -23 99h-277q-14 -30 -55 -96q-31 -54 -87 -54q-27 0 -45.5 14.5t-18.5 37.5q0 18 11 39l317 558q55 96 138 96q81 0 98 -96zM299 304h180l-37 245z" />
<glyph unicode="B" horiz-adv-x="629" d="M140 661q6 27 31.5 54t51.5 27h252q60 0 97 -44.5t37 -106.5q0 -116 -115 -179q110 -16 110 -132q0 -97 -71 -186q-76 -94 -174 -94h-294q-22 0 -38 13t-16 33q0 5 1 10zM357 295h-124l-31 -148h122q48 0 79 29q28 27 28 60q0 59 -74 59zM392 580h-98l-28 -132h106 q24 0 40.5 27t16.5 57q0 48 -37 48z" />
<glyph unicode="C" horiz-adv-x="662" d="M395 153q36 0 71 8l94 23q9 3 18 3q30 0 50 -22t20 -51q0 -53 -61 -77q-74 -28 -119 -38q-51 -11 -123 -11q-138 0 -211 84q-66 76 -66 199q0 180 122 330q133 164 326 164q78 0 112 -8q40 -9 103 -44q34 -20 34 -53q0 -34 -31.5 -64t-68.5 -30q-10 0 -18 3q-4 1 -78 27 q-30 11 -78 11h-8q-110 -4 -180 -121q-49 -83 -49 -165q0 -26 5 -52q22 -116 136 -116z" />
<glyph unicode="D" horiz-adv-x="690" d="M140 661q6 27 31.5 54t51.5 27h228q126 0 193 -83q61 -74 61 -195q0 -171 -107 -311q-117 -153 -289 -153h-228q-27 0 -48 14.5t-21 38.5q0 5 2 11zM433 580h-139l-91 -427h106q94 0 158 100q57 90 57 195q0 59 -23 95.5t-68 36.5z" />
<glyph unicode="E" horiz-adv-x="483" d="M142 669q7 32 31.5 52.5t56.5 20.5h270q60 0 60 -66q0 -36 -22 -66t-57 -30h-195l-31 -143h180q50 0 50 -57q0 -36 -21.5 -66t-54.5 -30h-186l-28 -131h180q65 0 65 -61q0 -34 -22 -63t-52 -29h-309q-18 0 -33 18q-13 15 -13 30q0 4 1 8z" />
<glyph unicode="F" horiz-adv-x="478" d="M17 81l125 588q16 73 80 73h285q60 0 60 -64q0 -34 -21 -61q-22 -30 -56 -30h-204l-25 -119h180q52 0 52 -57q0 -36 -23 -64q-24 -32 -62 -32h-180l-50 -234q-8 -38 -38 -60q-26 -20 -59 -20q-28 0 -47 15.5t-19 44.5q0 9 2 20z" />
<glyph unicode="G" horiz-adv-x="763" d="M516 765q183 0 252 -88q20 -25 20 -54q0 -38 -30 -67.5t-64 -29.5q-27 0 -45 22q-45 58 -161 58q-100 0 -175 -101q-69 -94 -69 -202q0 -69 35 -110q38 -47 112 -47q163 0 193 141h-137q-51 0 -51 57q0 36 23 66t60 30h242q53 0 53 -56q0 -13 -3 -29q-78 -367 -414 -367 q-143 0 -219 86q-68 77 -68 202q0 179 121 327q133 162 325 162z" />
<glyph unicode="H" horiz-adv-x="722" d="M141 662q8 38 38 61q28 19 61 19q28 0 47 -15t19 -41q0 -8 -1 -17l-46 -212h319l44 205q8 37 35 58t59 21q28 0 47.5 -17.5t19.5 -51.5q0 -12 -3 -26l-119 -560q-9 -41 -37.5 -63.5t-61.5 -22.5q-28 0 -47 16t-19 44q0 9 2 18l48 226h-319l-48 -226q-8 -37 -37 -58 t-62 -21q-28 0 -46.5 16t-18.5 44q0 9 2 19z" />
<glyph unicode="I" horiz-adv-x="241" d="M18 86l121 568q9 41 40 66q28 21 61 21q28 0 46 -15.5t18 -43.5q0 -10 -2 -20l-122 -576q-9 -40 -38 -62.5t-61 -22.5q-28 0 -46.5 16.5t-18.5 46.5q0 11 2 22z" />
<glyph unicode="J" horiz-adv-x="490" d="M547 654l-96 -450q-22 -107 -93 -165q-63 -52 -145 -52q-81 0 -140 49q-43 35 -43 81q0 34 23.5 59t57.5 25q21 0 42 -11q2 -1 37 -27q24 -18 40 -18q37 0 57 91l88 418q9 41 41 65q29 22 64 22q30 0 50 -17t20 -48q0 -10 -3 -22z" />
<glyph unicode="K" horiz-adv-x="670" d="M141 662q8 38 38 60q27 20 59 20q28 0 47 -15.5t19 -44.5q0 -10 -2 -20l-44 -205l307 253q37 30 76 30q31 0 52 -19.5t21 -47.5q0 -46 -52 -85l-243 -180l185 -248q24 -33 24 -64q0 -40 -34.5 -67.5t-75.5 -27.5q-43 0 -65 31l-214 295l-53 -248q-8 -37 -37.5 -58 t-63.5 -21q-30 0 -50 16t-20 45q0 9 2 18z" />
<glyph unicode="L" horiz-adv-x="477" d="M140 659q8 39 40 62q28 21 63 21q30 0 50 -16.5t20 -46.5q0 -9 -2 -19l-106 -499h195q54 0 54 -61q0 -37 -23 -67q-26 -33 -65 -33h-294q-23 0 -41 16t-18 38q0 5 1 10z" />
<glyph unicode="M" horiz-adv-x="939" d="M455 654l43 -335l193 335q51 87 132 87q39 0 62 -25q24 -27 24 -72v-7l-25 -547q-2 -41 -32 -68q-26 -24 -61 -24q-30 0 -50 20.5t-19 59.5l13 362l-190 -362q-42 -78 -106 -78t-74 78l-48 354l-119 -329q-38 -105 -114 -105q-29 0 -49 18.5t-20 46.5q0 14 6 29l210 545 q19 49 57 77t78 28q78 0 89 -88z" />
<glyph unicode="N" horiz-adv-x="722" d="M141 662q17 81 81 81q49 0 86 -58l239 -374l76 358q8 34 36 53t61 19q28 0 46 -13q20 -16 20 -42q0 -8 -1 -17l-128 -599q-15 -70 -75 -70q-57 0 -89 54l-235 394l-79 -370q-8 -37 -36.5 -57.5t-61.5 -20.5q-28 0 -47 15.5t-19 44.5q0 9 2 18z" />
<glyph unicode="O" horiz-adv-x="795" d="M526 766q144 0 221 -86q69 -78 69 -203q0 -181 -123 -328q-135 -162 -332 -162q-144 0 -222 87q-70 79 -70 205q0 181 123 327q135 160 334 160zM395 148q113 0 186 118q53 85 53 171q0 24 -4 49q-20 118 -136 118q-118 0 -191 -118q-53 -84 -53 -169q0 -25 5 -51 q23 -118 140 -118z" />
<glyph unicode="P" horiz-adv-x="592" d="M144 677q5 24 30.5 44.5t48.5 20.5h228q102 0 155 -56q47 -50 47 -132q0 -115 -79 -213q-84 -105 -198 -105h-155l-33 -152q-8 -40 -37.5 -62.5t-64.5 -22.5q-29 0 -49.5 17.5t-20.5 48.5q0 10 2 21zM402 587h-107l-41 -195h106q50 0 83 40q29 36 29 81q0 74 -70 74z" />
<glyph unicode="Q" horiz-adv-x="828" d="M536 766q137 0 215 -89q72 -82 72 -210q0 -180 -131 -321l62 -76q14 -17 14 -39q0 -32 -28.5 -58.5t-62.5 -26.5q-24 0 -42 17l-74 74q-122 -49 -219 -49q-133 0 -206 87q-66 80 -66 206q0 182 121 325q136 160 345 160zM477 604q-89 0 -159 -96q-65 -91 -65 -194 q0 -78 44 -122q43 -42 121 -42q13 0 27 1q-9 9 -25 35q-16 23 -16 48q0 35 27 61t61 26q35 0 61 -29q12 -11 31 -34q54 103 54 192q0 154 -161 154z" />
<glyph unicode="R" horiz-adv-x="623" d="M144 677q4 20 27 42.5t43 22.5h276q97 0 141 -89q22 -44 22 -89q0 -46 -23 -94q-52 -107 -196 -150l123 -189q15 -23 15 -48q0 -39 -30.5 -68t-67.5 -29q-48 0 -77 48l-163 270l-47 -221q-9 -44 -43 -71q-30 -24 -65 -24q-64 0 -64 67q0 13 3 28zM294 587l-33 -155h124 q37 0 61 32q22 29 22 66q0 57 -50 57h-124z" />
<glyph unicode="S" horiz-adv-x="613" d="M136 538q22 107 123 171q90 57 200 57q70 0 123 -26t53 -79q0 -37 -26 -66.5t-63 -29.5q-18 0 -36 9q-53 24 -108 24q-25 0 -43 -7t-26.5 -15.5t-14 -19t-6 -15.5t-0.5 -7q0 -24 66 -48q102 -37 137 -62q75 -52 75 -140q0 -24 -5 -52q-27 -126 -126 -190 q-86 -55 -207 -55q-88 0 -168 29q-62 23 -62 79q0 36 28 62t74 26q33 0 71 -15q54 -22 106 -22q88 0 103 71q1 6 1 11q0 37 -71 67q-112 48 -133 63q-71 49 -71 130q0 24 6 50z" />
<glyph unicode="T" horiz-adv-x="598" d="M310 587h-109q-62 0 -62 59q0 35 26 65.5t65 30.5h389q69 0 69 -62q0 -35 -26 -62q-30 -31 -75 -31h-113l-105 -492q-9 -46 -41 -72q-28 -24 -61 -24q-28 0 -46.5 17.5t-18.5 49.5q0 11 3 24z" />
<glyph unicode="U" horiz-adv-x="713" d="M137 646q10 45 43 71q29 24 64 24q29 0 48 -17t19 -48q0 -10 -3 -22l-78 -367q-3 -14 -3 -28q0 -50 40 -81q36 -28 90 -28q57 0 102 32q50 35 63 97l78 367q9 45 42 72q29 23 65 23q29 0 49 -17t20 -49q0 -10 -3 -21l-83 -391q-27 -127 -143 -204q-105 -71 -233 -71 q-111 0 -182 57q-78 62 -78 174q0 36 9 76z" />
<glyph unicode="V" horiz-adv-x="704" d="M314 669l70 -365l223 365q44 72 111 72q29 0 49 -17t20 -44q0 -24 -16 -51l-346 -551q-50 -79 -103 -79t-69 79l-111 543q-3 12 -3 23q0 43 31 71q28 26 65 26q66 0 79 -72z" />
<glyph unicode="W" horiz-adv-x="1027" d="M140 648q-2 38 32 67t73 29q68 0 70 -82l7 -383l187 342q66 121 131 121q67 0 80 -129l34 -334l170 383q36 81 111 81q28 0 47.5 -16t19.5 -43q0 -18 -9 -38l-256 -560q-19 -41 -54.5 -63.5t-73.5 -22.5q-35 0 -58 17q-26 20 -30 53l-47 362l-187 -346q-47 -87 -130 -87 q-37 0 -62 23t-27 64z" />
<glyph unicode="X" horiz-adv-x="714" d="M346 709l87 -161l157 161q32 33 73 33q31 0 52 -18.5t21 -47.5q0 -38 -39 -80l-186 -195l150 -273q8 -15 8 -31q0 -37 -35.5 -67.5t-74.5 -30.5q-38 0 -55 32l-126 230l-212 -217q-46 -46 -93 -46q-26 0 -42.5 15.5t-16.5 42.5q0 50 56 109l227 240l-98 182 q-15 28 -15 55q0 43 34 72q31 27 70 27q41 0 58 -32z" />
<glyph unicode="Y" horiz-adv-x="641" d="M308 699l92 -186l159 180q44 51 94 51q31 0 52 -20t21 -49q0 -32 -28 -62l-254 -270l-58 -273q-7 -33 -34 -51.5t-59 -18.5q-30 0 -49 15q-22 17 -22 46q0 8 2 17l57 265l-137 267q-7 14 -7 29q0 37 35 69.5t74 32.5q41 0 62 -42z" />
<glyph unicode="Z" horiz-adv-x="649" d="M475 587h-245q-64 0 -64 61q0 35 25 64.5t64 29.5h358q43 0 67.5 -21t24.5 -53q0 -38 -33 -72l-421 -443h285q74 0 74 -62q0 -34 -27 -61q-29 -30 -72 -30h-414q-81 0 -81 68q0 38 29 69z" />
<glyph unicode="[" horiz-adv-x="372" d="M21 -168q-43 0 -43 54q0 10 2 19l169 796q14 65 71 65h155q54 0 54 -48q0 -28 -20 -49q-23 -23 -60 -24h-74l-147 -692h77q35 0 35 -45q0 -28 -16.5 -52t-42.5 -24h-160z" />
<glyph unicode="\" horiz-adv-x="559" d="M282 725l190 -634q4 -14 4 -28q0 -32 -20.5 -53.5t-47.5 -21.5q-39 0 -53 46l-201 659q-3 6 -3 14q0 27 23.5 50.5t50.5 23.5q40 0 57 -56z" />
<glyph unicode="]" horiz-adv-x="372" d="M185 -168q26 0 48 25q19 21 25 48l169 796q2 13 2 23q0 42 -46 42h-169q-28 0 -46 -24t-18 -52q0 -44 39 -45h88l-147 -692h-77q-34 0 -55.5 -23.5t-21.5 -51.5q0 -46 49 -46h160z" />
<glyph unicode="^" d="M601 709l98 -308q2 -8 2 -16q0 -27 -21.5 -50.5t-47.5 -23.5q-39 0 -56 57l-70 236l-184 -244q-44 -59 -81 -59q-17 0 -27.5 13.5t-10.5 31.5q0 19 10 34l252 345q32 44 69 44q48 0 67 -60z" />
<glyph unicode="_" horiz-adv-x="490" d="M480 -127h-499q-48 0 -48 23q0 12 15.5 23t35.5 11h490q37 0 37 -21q0 -12 -11 -24t-20 -12z" />
<glyph unicode="`" horiz-adv-x="352" d="M398 686l-158 -221q-26 -36 -66 -36q-27 0 -47.5 17.5t-20.5 45.5q0 27 22 56l135 177q30 41 79 41q28 0 47.5 -14t19.5 -35q0 -15 -11 -31z" />
<glyph unicode="a" horiz-adv-x="624" d="M380 575q29 0 65 -19q33 -17 53 -39q32 58 90 58q26 0 44 -16t18 -46q0 -10 -3 -21l-95 -451q-6 -26 -32.5 -40t-58.5 -14q-33 0 -54 14q-17 11 -17 30q0 4 1 9q-73 -52 -145 -52q-96 0 -148 64q-47 58 -47 152q0 137 88 248q97 123 241 123zM359 413q-65 0 -108 -54 q-38 -48 -38 -110q0 -44 22 -71q25 -31 71 -31q61 0 103 56q39 51 39 113q0 42 -21 68q-24 29 -68 29z" />
<glyph unicode="b" horiz-adv-x="605" d="M143 674q7 33 34 52q24 17 55 17q28 0 47.5 -14.5t19.5 -40.5q0 -6 -1 -13l-31 -142q55 40 153 40q95 0 146 -62q46 -56 46 -149q0 -136 -88 -249q-96 -125 -238 -125q-90 0 -121 62q-7 -30 -33.5 -47.5t-57.5 -17.5q-64 0 -64 54q0 7 2 16zM357 416q-66 0 -109 -55 q-39 -50 -39 -112q0 -44 23 -72q25 -31 70 -31q59 0 103 59q41 56 41 119q0 92 -89 92z" />
<glyph unicode="c" horiz-adv-x="526" d="M376 573q123 0 160 -41q29 -34 29 -68q0 -31 -23 -53t-49 -22q-9 0 -16 3q-58 26 -102 26q-71 0 -120 -60q-44 -55 -44 -120q0 -41 22.5 -68t65.5 -27t128 30q10 4 20 4q21 0 34 -15t13 -37q0 -49 -54 -84q-35 -22 -90 -38q-51 -15 -82 -15q-110 0 -169 64 q-52 56 -52 150q0 134 92 248q100 123 237 123z" />
<glyph unicode="d" horiz-adv-x="624" d="M375 575q78 0 117 -46l28 129q8 40 39 63q27 21 60 21q28 0 47.5 -16.5t19.5 -46.5q0 -10 -3 -21l-129 -607q-6 -31 -32.5 -48t-59.5 -17q-29 0 -50.5 14t-21.5 39q0 5 2 11q-78 -58 -149 -58q-93 0 -143 65q-46 59 -46 153q0 136 84 244q93 121 237 121zM363 416 q-65 0 -108 -56q-40 -51 -40 -114q0 -43 22 -69q24 -30 69 -30q59 0 103 59q41 55 41 118q0 92 -87 92z" />
<glyph unicode="e" horiz-adv-x="618" d="M60 283q29 137 135 218q95 73 208 73q92 0 151 -50q64 -55 64 -150q0 -32 -7 -67q-16 -75 -66 -75h-317q6 -102 107 -102q36 0 75 14q35 12 53 28q28 24 55 24q23 0 37 -16t14 -40q0 -58 -72 -100q-90 -52 -187 -52q-108 0 -181 61q-76 65 -76 170q0 31 7 64zM249 347 h211q-2 45 -27 71q-23 23 -58 23t-68 -24q-36 -25 -58 -70z" />
<glyph unicode="f" horiz-adv-x="462" d="M186 555h37l10 46q14 71 71.5 118t140.5 47q33 0 59 -22.5t26 -53.5q0 -7 -1 -14q-7 -31 -28 -40q-14 -6 -46 -6h-3q-25 0 -37 -3q-17 -4 -23 -22l-10 -50q20 0 66 -1q57 0 57 -56q0 -33 -22 -60q-25 -29 -63 -30h-68l-71 -333q-8 -35 -35 -55t-58 -20q-62 0 -62 60 q0 11 2 23l69 325q-11 -1 -37 -1q-59 0 -59 58q0 34 22 60q25 30 63 30z" />
<glyph unicode="g" horiz-adv-x="618" d="M373 575q90 0 115 -68q8 33 36 52q25 17 57 17q28 0 47 -14t19 -40q0 -7 -2 -15l-103 -485q-25 -121 -131 -192q-95 -64 -214 -64q-113 0 -185 59q-27 22 -27 54t24.5 60.5t48.5 28.5q12 0 20 -8q12 -12 57 -30q57 -24 107 -24q124 0 150 146q-26 -29 -76 -47 q-45 -17 -85 -17q-90 0 -138 61q-43 56 -43 146q0 139 87 253q96 127 236 127zM358 410q-62 0 -105 -59q-38 -54 -38 -119q0 -44 21 -72t63 -28q62 0 104 59q38 53 38 118q0 44 -21 72.5t-62 28.5z" />
<glyph unicode="h" horiz-adv-x="573" d="M142 667q7 35 37 56q27 19 61 19q28 0 47 -15t19 -43q0 -8 -2 -18l-29 -135q65 45 144 45q70 0 116 -36q50 -39 50 -107q0 -19 -4 -41l-67 -316q-8 -36 -35.5 -56t-59.5 -20q-27 0 -45 15t-18 41q0 8 2 17l57 270q2 10 2 19q0 33 -23.5 51.5t-56.5 18.5q-34 0 -61 -20 q-31 -22 -39 -60l-59 -276q-7 -36 -35.5 -56t-62.5 -20q-28 0 -47 15t-19 43q0 8 2 18z" />
<glyph unicode="i" horiz-adv-x="262" d="M256 742q72 0 72 -68q0 -41 -29 -73q-32 -35 -80 -35q-40 0 -61 20t-21 50q0 40 33 73t86 33zM35 89l78 369q9 42 39 68q27 22 59 22q60 0 60 -64q0 -12 -3 -26l-78 -366q-9 -44 -37.5 -68t-59.5 -24q-26 0 -43.5 16.5t-17.5 47.5q0 12 3 25z" />
<glyph unicode="j" horiz-adv-x="264" d="M112 472q8 37 38 59q26 19 59 19q29 0 48 -16t19 -45q0 -10 -2 -20l-134 -629q-7 -35 -36 -54.5t-62 -19.5q-66 0 -66 56q0 9 2 18zM219 566q-40 0 -61 20t-21 50q0 40 33 73t86 33q72 0 72 -68q0 -41 -29 -73q-32 -35 -80 -35z" />
<glyph unicode="k" horiz-adv-x="548" d="M302 658l-57 -274l198 164q32 26 66 26q29 0 48.5 -18.5t19.5 -44.5q0 -35 -34 -63l-157 -129l111 -183q11 -19 11 -40q0 -37 -29.5 -67t-64.5 -30q-40 0 -65 42l-130 222l-37 -175q-9 -41 -41 -66q-28 -23 -62 -23q-63 0 -63 65q0 12 3 26l121 568q8 39 37 61t61 22 q29 0 47.5 -16.5t18.5 -45.5q0 -10 -2 -21z" />
<glyph unicode="l" horiz-adv-x="241" d="M138 651q10 44 40 69q27 22 60 22q27 0 46.5 -17t19.5 -46q0 -9 -3 -19l-122 -575q-9 -41 -36.5 -63.5t-59.5 -22.5q-28 0 -47.5 17.5t-19.5 47.5q0 10 2 21z" />
<glyph unicode="m" horiz-adv-x="878" d="M107 505q15 70 87 70q28 0 48.5 -15.5t20.5 -40.5q0 -7 -1 -13q68 69 157 69t136 -69q71 68 178 68q77 0 120 -42q36 -34 36 -88q0 -20 -5 -42l-68 -319q-8 -40 -38 -63q-26 -21 -59 -21q-29 0 -49 17t-20 47q0 10 2 20l53 252q3 12 3 23q0 32 -19.5 50.5t-47.5 18.5 q-30 0 -53 -21q-27 -23 -36 -65l-57 -271q-7 -32 -35.5 -51t-60.5 -19q-67 0 -67 59q0 9 2 20l57 264q2 11 2 20q0 29 -18 44.5t-45 15.5q-32 0 -58 -20q-29 -22 -37 -60l-56 -265q-8 -37 -38 -59q-26 -19 -59 -19q-28 0 -47.5 15.5t-19.5 44.5q0 9 2 18z" />
<glyph unicode="n" horiz-adv-x="575" d="M106 497q7 36 36 58q25 19 56 19q27 0 45 -15.5t18 -42.5q0 -9 -2 -19q55 77 163 77q78 0 125 -44q40 -37 40 -92q0 -18 -4 -37l-67 -313q-9 -42 -39 -67q-27 -21 -60 -21q-28 0 -47 16.5t-19 47.5q0 10 2 21l58 274q2 7 2 13q0 25 -20.5 39.5t-50.5 14.5q-37 0 -66 -20 q-33 -23 -42 -63l-52 -247q-10 -45 -39.5 -70.5t-61.5 -25.5q-27 0 -45.5 18t-18.5 51q0 12 3 27z" />
<glyph unicode="o" horiz-adv-x="613" d="M399 575q101 0 157 -69q51 -63 51 -161q0 -136 -90 -240q-100 -117 -262 -117q-100 0 -154 65q-49 59 -49 153q0 137 91 247q102 122 256 122zM342 410q-53 0 -91 -55q-35 -50 -35 -110q0 -96 81 -96q65 0 110 53q41 48 41 107q0 44 -25 71q-28 30 -81 30z" />
<glyph unicode="p" horiz-adv-x="611" d="M106 497q8 38 36 59q25 19 56 19q27 0 46 -15t19 -40q0 -7 -1 -14q74 67 153 67q93 0 145 -67q46 -60 46 -157q0 -136 -82 -242q-91 -119 -233 -119q-72 0 -123 40l-39 -184q-7 -36 -39 -58q-28 -21 -62 -21q-62 0 -62 62q0 11 2 24zM365 410q-65 0 -109 -56 q-40 -51 -40 -113q0 -44 22 -70q25 -30 70 -30q61 0 102 56q37 51 37 114q0 43 -19 70q-22 29 -63 29z" />
<glyph unicode="q" horiz-adv-x="616" d="M363 573q80 0 126 -58q6 27 36 44q27 16 59 16q62 0 62 -47q0 -7 -1 -14l-144 -677q-8 -34 -35.5 -52.5t-60.5 -18.5q-28 0 -48 15t-20 41q0 7 1 15l40 192q-70 -41 -141 -41q-92 0 -142 62q-44 56 -44 148q0 137 84 251q94 124 228 124zM356 418q-65 0 -108 -58 q-40 -53 -40 -117q0 -44 21 -71q24 -30 68 -30q61 0 103 59q37 53 37 118q0 43 -19 70q-22 29 -62 29z" />
<glyph unicode="r" horiz-adv-x="405" d="M106 497q16 76 87 76q28 0 48 -15.5t20 -40.5q0 -7 -1 -14q66 67 143 67q23 0 39 -24q13 -22 13 -50q0 -51 -56 -77l-108 -38q-63 -27 -74 -80l-49 -232q-8 -38 -36.5 -60t-60.5 -22q-59 0 -59 59q0 11 3 23z" />
<glyph unicode="s" horiz-adv-x="489" d="M88 375q20 94 95 149q69 50 156 50q82 0 142 -45q30 -23 30 -59q0 -29 -20 -52.5t-46 -23.5q-13 0 -25 7q-64 36 -117 36q-27 0 -38 -12.5t-11 -23.5q0 -18 47 -44q74 -42 98 -63q54 -47 54 -112q0 -18 -4 -37q-17 -80 -89 -121q-63 -36 -150 -36q-106 0 -170 44 q-21 15 -21 47q0 33 20.5 61t51.5 28q16 0 33 -9q76 -39 119 -39q19 0 30.5 8.5t14 15.5t2.5 13q0 19 -48 41q-81 37 -101 51q-56 40 -56 97q0 14 3 29z" />
<glyph unicode="t" horiz-adv-x="475" d="M155 408h-4q-51 0 -51 53q0 35 23 63q23 31 56 31h2h56q6 27 21 105q8 38 38 61q27 19 59 19q26 0 44 -14t18 -40q0 -8 -2 -17l-24 -114h65q66 0 66 -59q0 -33 -25 -59q-27 -29 -69 -29l-60 1l-70 -329q-8 -39 -36.5 -60t-62.5 -21q-28 0 -46 15q-21 15 -21 42q0 8 2 16 l72 337q-16 0 -51 -1z" />
<glyph unicode="u" horiz-adv-x="574" d="M46 217l55 258q8 38 36 60q26 19 56 19q27 0 45 -15.5t18 -43.5q0 -10 -2 -20l-51 -241q-3 -11 -3 -21q0 -33 22 -51t54 -18q36 0 66.5 23.5t39.5 66.5l50 233q9 41 38 64t62 23q28 0 47 -17t19 -48q0 -10 -3 -22l-56 -266q-25 -116 -152 -178q-78 -38 -150 -38 q-41 0 -80 12q-118 35 -118 160q0 29 7 60z" />
<glyph unicode="v" horiz-adv-x="564" d="M265 488l35 -253l135 245q42 77 109 77q59 0 59 -58q0 -34 -27 -76l-231 -369q-34 -54 -94 -54q-58 0 -70 54l-77 360q-5 21 -5 39q0 48 29 77q25 25 61 25q29 0 50.5 -17.5t25.5 -49.5z" />
<glyph unicode="w" horiz-adv-x="864" d="M104 472q-1 4 -1 9q0 27 23 50q27 26 61 26q59 0 69 -76l31 -237l130 221q53 91 103 91q48 0 60 -83l32 -237l126 253q34 68 106 68q59 0 59 -52q0 -25 -18 -57l-209 -362q-50 -86 -117 -86q-31 0 -53 21.5t-26 57.5l-22 200l-117 -208q-40 -71 -107 -71q-66 0 -74 63z " />
<glyph unicode="x" horiz-adv-x="587" d="M222 295l-81 103q-22 28 -22 60q0 39 30 69t68 30q44 0 70 -44l60 -97l106 101q33 31 75 31q29 0 49 -17t20 -44q0 -45 -57 -94l-123 -106l103 -143q17 -22 17 -46q0 -39 -38.5 -68.5t-75.5 -29.5q-25 0 -35 16l-95 147l-152 -139q-26 -24 -55 -24q-28 0 -48.5 21 t-20.5 51q0 40 36 72z" />
<glyph unicode="y" horiz-adv-x="562" d="M260 487l34 -243l144 234q47 77 109 77q53 0 53 -57q0 -37 -30 -85l-363 -581q-43 -68 -95 -68q-25 0 -42.5 17.5t-17.5 43.5q0 21 12 42l106 175q-30 158 -68 379q-3 16 -3 30q0 48 29 77q26 27 61 27q62 0 71 -68z" />
<glyph unicode="z" horiz-adv-x="553" d="M321 399h-145q-37 0 -58 20q-18 17 -18 44q0 35 29 63.5t77 28.5h328q59 0 59 -48q0 -28 -23 -52l-303 -310h179q57 0 57 -55q0 -34 -23 -61q-26 -29 -64 -29h-374q-30 0 -30 42q0 35 19 55z" />
<glyph unicode="{" horiz-adv-x="456" d="M157 360q41 16 51 131q13 142 42 192q50 87 182 87q13 0 28 -1q55 -4 55 -46q0 -21 -19 -37.5t-51 -18.5q-69 -2 -83 -88l-22 -165q-26 -94 -122 -110q74 -27 74 -102q0 -40 -27 -120t-27 -106q0 -42 47 -47q53 -4 53 -35q0 -18 -17.5 -35t-36.5 -19q-29 -3 -54 -3 q-140 0 -140 104q0 39 25 128.5t25 125.5q0 13 -2 23q-4 26 -25 33l-35 6q-17 3 -17 22q0 7 2 16q8 38 32 47z" />
<glyph unicode="|" horiz-adv-x="224" d="M156 733q8 39 34 61q23 20 50 20q50 0 50 -52q0 -10 -3 -20l-172 -812q-7 -34 -30 -53t-49 -19q-52 0 -52 57q0 11 3 23z" />
<glyph unicode="}" horiz-adv-x="456" d="M358 360q-18 9 -18 36t32 122.5t32 142.5q0 109 -147 109q-14 0 -29 -1q-34 -3 -55.5 -22t-21.5 -41q0 -37 51 -39t51 -48q0 -27 -28.5 -109.5t-28.5 -120.5q0 -71 78 -85q-99 -31 -127 -127l-23 -161q-12 -81 -77 -87q-71 -5 -71 -50q0 -35 34 -39q28 -3 53 -3 q118 0 167 71q30 45 46 156q16 115 40 154q20 33 64 37q37 3 45 40q2 12 2 21q0 21 -20 28z" />
<glyph unicode="~" horiz-adv-x="629" d="M234 409q35 0 114.5 -37t104.5 -37q20 0 64 29.5t58 29.5q34 0 34 -37q0 -58 -53.5 -111t-111.5 -53q-50 0 -127 36.5t-102 36.5q-24 0 -70.5 -33t-60.5 -33q-30 0 -30 43q0 63 58.5 114.5t121.5 51.5z" />
<glyph unicode="&#xa1;" horiz-adv-x="536" d="M231 718q65 0 65 -65q0 -37 -26 -66q-28 -33 -73 -33q-64 0 -64 61q0 38 28 70.5t70 32.5zM436 556q-62 0 -62 61q0 35 24 62q26 31 66 31q69 0 69 -60q0 -35 -26 -63q-29 -31 -71 -31zM579 816l-221 -76q-12 -4 -21 -4q-34 0 -34 44q0 28 14.5 55.5t36.5 36.5l168 67 q22 8 41 8q30 0 47.5 -19t17.5 -45q0 -50 -49 -67z" />
<glyph unicode="&#xa3;" horiz-adv-x="730" d="M80 375q11 52 53 70q28 12 86 12q-2 17 -2 34q0 126 86 196.5t232 70.5q175 0 222 -146q3 -9 3 -19q0 -33 -29.5 -60t-61.5 -27q-24 0 -38 16q-44 52 -61 63q-24 18 -65 18q-54 0 -92 -32t-38 -75q0 -25 13 -48q11 0 36 1.5t39 1.5q85 0 85 -55q0 -10 -3 -22 q-10 -48 -42 -66q-23 -14 -68 -14q-10 0 -31 1h-32q2 -6 2 -13q0 -44 -62 -119h276q68 0 68 -63q0 -36 -25 -67t-61 -31h-415q-37 0 -52 7q-23 11 -23 44q0 17 6 44q3 14 32 46q39 43 54 64q30 44 37 88q-67 0 -88 5q-44 10 -44 52q0 10 3 23z" />
<glyph unicode="&#xa4;" horiz-adv-x="736" d="M441 590q-47 0 -77.5 -41.5t-30.5 -89.5q0 -76 67 -76q49 0 85 44q32 40 32 88q0 75 -76 75zM313 781l64 -80q50 22 103 22q49 0 86 -20l95 78q45 38 85 38q26 0 41.5 -16t15.5 -40q0 -45 -49 -85l-110 -91q4 -22 4 -47q0 -83 -46 -157l67 -85q19 -25 19 -53 q0 -35 -26 -61.5t-61 -26.5q-39 0 -69 38l-61 78q-49 -19 -98 -19t-84 19l-100 -82q-45 -38 -85 -38q-26 0 -41.5 15.5t-15.5 40.5q0 44 49 85l111 91q-5 24 -5 49q0 77 47 152l-72 92q-20 25 -20 53q0 35 26.5 61.5t60.5 26.5q40 0 69 -38z" />
<glyph unicode="&#xa5;" horiz-adv-x="703" d="M541 300q54 0 54 -56q0 -34 -23 -61q-24 -30 -62 -30h-93l-20 -95q-6 -30 -33.5 -47.5t-59.5 -17.5q-30 0 -50 15t-20 42q0 8 1 17l19 86h-99q-53 0 -53 54q0 34 24 63.5t60 29.5h99l9 40h-139q-54 0 -54 55q0 34 24 63.5t61 29.5h36l-76 148q-5 11 -5 23q0 35 38 68 t77 33q37 0 54 -35l103 -212l180 204q35 39 79 39q33 0 57 -21.5t24 -50.5q0 -26 -20 -48l-140 -148h28q54 0 54 -56q0 -34 -22 -62q-25 -30 -63 -30h-133l-8 -40h92z" />
<glyph unicode="&#xa6;" horiz-adv-x="215" d="M156 733q8 38 32 60q21 21 46 21q46 0 46 -55q0 -12 -3 -26l-143 -675q-7 -30 -30 -49.5t-48 -19.5q-45 0 -45 52q0 12 3 26z" />
<glyph unicode="&#xa7;" horiz-adv-x="605" d="M68 321q11 51 44 84q5 5 78 59q-23 53 -23 96q0 18 4 36q17 77 88 123q66 42 150 42q129 0 183 -88q8 -12 8 -28q0 -30 -23 -56.5t-50 -26.5q-19 0 -34.5 14.5t-50.5 31.5q-44 22 -74 22q-40 0 -48 -38q-1 -4 -1 -8q0 -32 58 -69l125 -81q69 -58 69 -130q0 -17 -4 -37 q-19 -90 -128 -160q35 -35 35 -88q0 -15 -3 -30q-19 -87 -95 -135q-68 -42 -157 -42q-64 0 -115 22q-54 24 -75 64q-10 20 -10 39q0 32 23 54t51 22q30 0 48 -24q13 -16 50.5 -31t69.5 -15q46 0 53 32q1 8 1 15q0 40 -65 82q-115 73 -121 78q-65 55 -65 128q0 21 4 43z M363 187q4 -2 7 -2q14 0 31 25q15 21 19 40q1 6 1 12q0 47 -72 89l-86 41q-57 -40 -57 -73q0 -22 25 -40q39 -31 132 -92z" />
<glyph unicode="&#xa8;" horiz-adv-x="491" d="M244 774q64 0 64 -65q0 -37 -26 -66q-28 -32 -73 -32q-64 0 -64 62q0 38 27.5 69.5t71.5 31.5zM449 613q-63 0 -63 61q0 35 26 63.5t69 28.5q64 0 64 -59q0 -35 -25 -63q-29 -31 -71 -31z" />
<glyph unicode="&#xa9;" horiz-adv-x="859" d="M547 766q155 0 237 -85q74 -75 74 -200q0 -180 -131 -331q-141 -164 -338 -164q-156 0 -242 91q-76 81 -76 212q0 179 127 321q139 156 349 156zM412 91q140 0 237 118q90 109 90 240q0 92 -51 149q-57 63 -164 63q-147 0 -246 -115q-90 -105 -90 -236q0 -94 54 -153 q59 -66 170 -66zM428 158q-78 0 -121 50q-39 46 -39 119q0 104 68 187q76 91 191 91q58 0 97 -26q43 -29 43 -80q0 -12 -3 -26q-8 -39 -50 -39q-27 0 -36 18l-18 36q-14 19 -50 19q-57 0 -94 -51q-34 -47 -34 -105q0 -41 19 -66q21 -28 59 -28q36 0 73.5 42t71.5 42 q26 0 26 -31q0 -65 -72 -111q-63 -41 -131 -41z" />
<glyph unicode="&#xaa;" horiz-adv-x="365" d="M287 743q33 0 59 -28q17 30 46 30q31 0 31 -28q0 -7 -2 -15l-46 -216q-8 -38 -52 -38q-31 0 -31 21v5q-36 -26 -72 -26q-48 0 -74 32q-24 29 -24 76q0 69 44 125q49 62 121 62zM276 663q-32 0 -52.5 -26.5t-20.5 -58.5q0 -51 46 -51q31 0 51.5 27t20.5 59q0 50 -45 50z " />
<glyph unicode="&#xab;" horiz-adv-x="601" d="M340 221q-21 27 -21 53q0 45 64 95q23 17 127 79q22 14 40 14q42 0 42 -52q0 -46 -38 -67l-102 -56l84 -66q12 -10 12 -26q0 -26 -25 -52.5t-53 -26.5q-20 0 -36 15zM81 229q-18 30 -18 57q0 48 62 94q6 5 126 77q22 13 39 13q43 0 43 -52q0 -46 -38 -66l-103 -57l85 -66 q12 -9 12 -26q0 -26 -24.5 -52.5t-52.5 -26.5q-20 0 -37 15z" />
<glyph unicode="&#xac;" horiz-adv-x="716" d="M681 277l-36 -168q-6 -32 -31.5 -49.5t-55.5 -17.5q-26 0 -43.5 14t-17.5 38q0 7 1 15l24 112h-408q-54 0 -54 54q0 34 24 63.5t61 29.5h489q51 0 51 -59q0 -15 -4 -32z" />
<glyph unicode="&#xad;" horiz-adv-x="483" d="M407 368q54 0 54 -56q0 -34 -23 -61q-25 -30 -62 -30h-253q-53 0 -53 54q0 34 24 63.5t61 29.5h252z" />
<glyph unicode="&#xae;" horiz-adv-x="868" d="M545 766q156 0 241 -92q76 -83 76 -215q0 -175 -122 -313q-135 -152 -342 -152q-164 0 -250 87q-78 78 -78 205q0 177 130 322q142 158 345 158zM352 540q5 23 14.5 31.5t34.5 8.5h170q46 0 72 -25q23 -23 23 -61q0 -45 -31 -88q-34 -46 -92 -71l52 -106q2 -6 2 -12 q0 -18 -18 -30.5t-39 -12.5q-22 0 -29 14l-79 155h-33l-24 -114q-12 -59 -55 -59q-35 0 -35 45q0 10 3 21zM434 506l-19 -90h80q27 0 43.5 17t16.5 38q0 35 -40 35h-81zM404 90q153 0 249 114q85 102 85 236q0 98 -51 160q-55 69 -154 69q-144 0 -246 -124 q-94 -113 -94 -248q0 -91 50 -146q56 -61 161 -61z" />
<glyph unicode="&#xaf;" horiz-adv-x="670" d="M721 792h-500q-47 0 -47 23q0 12 15 23t36 11h489q37 0 37 -21q0 -12 -11 -24t-19 -12z" />
<glyph unicode="&#xb0;" horiz-adv-x="459" d="M341 784q78 0 120 -43q36 -37 36 -99q0 -89 -64 -163q-70 -80 -167 -80q-71 0 -110 44q-34 41 -34 105q0 88 58 158q64 78 161 78zM321 670q-42 0 -70.5 -34t-28.5 -72q0 -60 60 -60q49 0 79 32q27 29 27 67q0 28 -16 47q-19 20 -51 20z" />
<glyph unicode="&#xb1;" d="M413 534l33 155q7 32 34 50q24 17 55 17q61 0 61 -52q0 -7 -1 -15l-34 -155h156q53 0 53 -55q0 -34 -24 -63t-60 -29h-156l-33 -154q-6 -32 -32 -49.5t-56 -17.5q-26 0 -44 13.5t-18 38.5q0 7 2 15l33 154h-153q-53 0 -53 54q0 34 24 63.5t60 29.5h153zM622 148 q54 0 54 -56q0 -34 -22 -61q-25 -30 -63 -30h-445q-54 0 -54 54q0 34 24 63.5t61 29.5h445z" />
<glyph unicode="&#xb2;" horiz-adv-x="349" d="M289 628q1 4 1 7q0 21 -31 21q-18 0 -31 -18l-24 -37q-18 -24 -42 -24q-30 0 -30 29q0 9 4 19q20 51 59 82.5t87 31.5q44 0 71 -25t27 -65q0 -13 -2 -26q-11 -50 -62 -101l-95 -83h97q23 0 23 -29q0 -18 -11 -32.5t-28 -14.5h-191q-28 0 -28 23q0 5 2 12q5 25 41 54 q150 116 163 176z" />
<glyph unicode="&#xb3;" horiz-adv-x="353" d="M270 662q-27 0 -74 -41q-8 -8 -19 -8q-30 0 -30 34q0 19 17 38q47 56 122 56q44 0 67.5 -23t23.5 -57q0 -57 -55 -96q40 -25 40 -71q0 -50 -45 -94q-48 -45 -109 -45q-39 0 -72 19q-37 22 -41 56v9q0 21 13 37q15 19 35 19q17 0 28 -15l16 -27q12 -15 34 -15t37 16.5 t15 34.5q0 28 -30 28q-20 0 -32.5 10.5t-12.5 25.5q0 36 60 49q34 7 34 30q0 30 -22 30z" />
<glyph unicode="&#xb4;" horiz-adv-x="402" d="M184 554q-11 -3 -19 -3q-36 0 -36 47q0 27 14 53.5t37 35.5l169 67q24 10 45 10q29 0 45.5 -18t16.5 -44q0 -55 -51 -72z" />
<glyph unicode="&#xb5;" horiz-adv-x="576" d="M165 0l-28 -132q-11 -49 -44 -78q-30 -25 -65 -25q-27 0 -44.5 16.5t-17.5 46.5q0 11 2 23l132 618q8 38 40 62q29 23 63 23q61 0 61 -63q0 -12 -3 -26l-55 -257q-2 -11 -2 -21q0 -55 63 -55q37 0 72 23.5t43 60.5l53 250q10 43 37 66t59 23q29 0 48.5 -18t19.5 -49 q0 -11 -2 -22l-87 -401q-7 -36 -36 -57t-60 -21q-59 0 -59 54q0 10 2 20q-50 -66 -149 -66q-23 0 -43 5z" />
<glyph unicode="&#xb6;" horiz-adv-x="606" d="M597 666l-141 -662h-76l141 662h-86l-141 -662h-75l71 331h-2q-89 0 -137 44q-44 40 -44 104q0 96 85 172q96 86 242 86h235l-16 -75h-56zM169 594h23l13 -95l54 95h22l-23 -111h-15l20 93l-55 -93h-14l-14 95l-21 -95h-14zM371 566l-19 -89q-7 -29 -46 -29q-15 0 -32 5 l1 11q21 -5 32 -5q25 0 29 21l5 22q-11 -17 -34 -17q-30 0 -30 30q0 55 61 55q15 0 33 -4zM354 557q-9 2 -17 2q-38 0 -45 -34q-1 -6 -1 -10q0 -20 21 -20q29 0 35 30z" />
<glyph unicode="&#xb7;" horiz-adv-x="281" d="M223 588q71 0 71 -71q0 -42 -29 -77q-33 -38 -81 -38q-40 0 -60.5 21t-20.5 53q0 42 32 75q35 37 88 37z" />
<glyph unicode="&#xb9;" d="M488 587l-72 1q-55 1 -55 59q0 36 24.5 65.5t63.5 29.5h177q17 0 34 -20q13 -17 13 -31v-5l-127 -595q-10 -49 -40.5 -76t-64.5 -27q-27 0 -45 18t-18 51q0 13 3 27z" />
<glyph unicode="&#xba;" horiz-adv-x="613" d="M399 575q101 0 157 -69q51 -63 51 -161q0 -136 -90 -240q-100 -117 -262 -117q-100 0 -154 65q-49 59 -49 153q0 137 91 247q102 122 256 122zM342 410q-53 0 -91 -55q-35 -50 -35 -110q0 -96 81 -96q65 0 110 53q41 48 41 107q0 44 -25 71q-28 30 -81 30z" />
<glyph unicode="&#xbb;" horiz-adv-x="601" d="M261 221q50 41 50 82q0 36 -41 78q-11 11 -82 67q-16 14 -34 14q-28 0 -49.5 -27t-21.5 -56q0 -24 16 -36l78 -56l-112 -66q-27 -17 -27 -50q0 -22 13.5 -38.5t35.5 -16.5q20 0 42 15zM524 229q49 47 49 88q0 37 -41 75l-82 65q-15 13 -33 13q-28 0 -50 -27t-22 -56 q0 -24 17 -35l79 -57l-114 -66q-27 -16 -27 -50q0 -22 13.5 -38.5t34.5 -16.5q20 0 43 15z" />
<glyph unicode="&#xbd;" horiz-adv-x="575" d="M212 685q-37 0 -36 0q-24 2 -24 26q0 18 12.5 34.5t28.5 16.5h88q9 0 17 -10t6 -18l-63 -298q-4 -22 -20 -35.5t-32 -13.5q-30 0 -30 37q0 9 2 21zM426 525l-240 -325q-11 -16 -27 -16q-24 0 -24 26q0 14 11 30l229 309q16 21 35 21q25 0 25 -23q0 -11 -9 -22zM443 286 q1 4 1 7q0 21 -31 21q-18 0 -31 -18l-25 -37q-17 -24 -42 -24q-29 0 -29 29q0 9 4 19q20 51 59 82.5t86 31.5q44 0 71.5 -25t27.5 -65q0 -13 -3 -26q-10 -50 -62 -101l-94 -83h97q22 0 22 -29q0 -18 -10.5 -32.5t-27.5 -14.5h-191q-28 0 -28 24q0 5 1 11q6 25 42 54 q150 116 163 176z" />
<glyph unicode="&#xc0;" horiz-adv-x="719" d="M719 1083l-158 -221q-26 -36 -66 -36q-27 0 -47.5 17.5t-20.5 45.5q0 27 22 56l135 177q30 41 79 41q28 0 47.5 -14t19.5 -35q0 -15 -11 -31zM576 646l97 -553q1 -8 1 -16q0 -36 -26.5 -57t-60.5 -21q-58 0 -69 49q-10 34 -23 99h-277q-14 -30 -55 -96q-31 -54 -87 -54 q-27 0 -45.5 14.5t-18.5 37.5q0 18 11 39l317 558q55 96 138 96q81 0 98 -96zM299 304h180l-37 245z" />
<glyph unicode="&#xc1;" horiz-adv-x="719" d="M504 829q-11 -3 -19 -3q-36 0 -36 47q0 27 14 53.5t37 35.5l169 67q24 10 45 10q29 0 45.5 -18t16.5 -44q0 -55 -51 -72zM576 646l97 -553q1 -8 1 -16q0 -36 -26.5 -57t-60.5 -21q-58 0 -69 49q-10 34 -23 99h-277q-14 -30 -55 -96q-31 -54 -87 -54q-27 0 -45.5 14.5 t-18.5 37.5q0 18 11 39l317 558q55 96 138 96q81 0 98 -96zM299 304h180l-37 245z" />
<glyph unicode="&#xc2;" horiz-adv-x="719" d="M650 1210l98 -308q2 -7 2 -14q0 -24 -22.5 -42.5t-49.5 -18.5q-40 0 -53 42l-70 236l-184 -244q-26 -35 -66 -35q-28 0 -43 16q-8 9 -8 19t8 20l253 345q31 44 68 44q48 0 67 -60zM576 646l97 -553q1 -8 1 -16q0 -36 -26.5 -57t-60.5 -21q-58 0 -69 49q-10 34 -23 99 h-277q-14 -30 -55 -96q-31 -54 -87 -54q-27 0 -45.5 14.5t-18.5 37.5q0 18 11 39l317 558q55 96 138 96q81 0 98 -96zM299 304h180l-37 245z" />
<glyph unicode="&#xc3;" horiz-adv-x="719" d="M418 1042q35 0 114.5 -37t104.5 -37q20 0 64 29.5t58 29.5q34 0 34 -37q0 -58 -53.5 -111t-111.5 -53q-50 0 -127 36.5t-102 36.5q-24 0 -70.5 -33t-60.5 -33q-30 0 -30 43q0 63 58.5 114.5t121.5 51.5zM576 646l97 -553q1 -8 1 -16q0 -36 -26.5 -57t-60.5 -21 q-58 0 -69 49q-10 34 -23 99h-277q-14 -30 -55 -96q-31 -54 -87 -54q-27 0 -45.5 14.5t-18.5 37.5q0 18 11 39l317 558q55 96 138 96q81 0 98 -96zM299 304h180l-37 245z" />
<glyph unicode="&#xc4;" horiz-adv-x="719" d="M409 989q64 0 64 -65q0 -37 -26 -66q-28 -32 -73 -32q-64 0 -64 62q0 38 27.5 69.5t71.5 31.5zM614 828q-63 0 -63 61q0 35 26 63.5t69 28.5q64 0 64 -59q0 -35 -25 -63q-29 -31 -71 -31zM576 646l97 -553q1 -8 1 -16q0 -36 -26.5 -57t-60.5 -21q-58 0 -69 49 q-10 34 -23 99h-277q-14 -30 -55 -96q-31 -54 -87 -54q-27 0 -45.5 14.5t-18.5 37.5q0 18 11 39l317 558q55 96 138 96q81 0 98 -96zM299 304h180l-37 245z" />
<glyph unicode="&#xc5;" horiz-adv-x="719" d="M552 1138q78 0 120 -43q36 -37 36 -99q0 -89 -64 -163q-70 -80 -167 -80q-71 0 -110 44q-34 41 -34 105q0 88 58 158q64 78 161 78zM532 1024q-42 0 -70.5 -34t-28.5 -72q0 -60 60 -60q49 0 79 32q27 29 27 67q0 28 -16 47q-19 20 -51 20zM576 646l97 -553q1 -8 1 -16 q0 -36 -26.5 -57t-60.5 -21q-58 0 -69 49q-10 34 -23 99h-277q-14 -30 -55 -96q-31 -54 -87 -54q-27 0 -45.5 14.5t-18.5 37.5q0 18 11 39l317 558q55 96 138 96q81 0 98 -96zM299 304h180l-37 245z" />
<glyph unicode="&#xc8;" horiz-adv-x="483" d="M606 1083l-158 -221q-26 -36 -66 -36q-27 0 -47.5 17.5t-20.5 45.5q0 27 22 56l135 177q30 41 79 41q28 0 47.5 -14t19.5 -35q0 -15 -11 -31zM142 669q7 32 31.5 52.5t56.5 20.5h270q60 0 60 -66q0 -36 -22 -66t-57 -30h-195l-31 -143h180q50 0 50 -57q0 -36 -21.5 -66 t-54.5 -30h-186l-28 -131h180q65 0 65 -61q0 -34 -22 -63t-52 -29h-309q-18 0 -33 18q-13 15 -13 30q0 4 1 8z" />
<glyph unicode="&#xc9;" horiz-adv-x="483" d="M391 829q-11 -3 -19 -3q-36 0 -36 47q0 27 14 53.5t37 35.5l169 67q24 10 45 10q29 0 45.5 -18t16.5 -44q0 -55 -51 -72zM142 669q7 32 31.5 52.5t56.5 20.5h270q60 0 60 -66q0 -36 -22 -66t-57 -30h-195l-31 -143h180q50 0 50 -57q0 -36 -21.5 -66t-54.5 -30h-186 l-28 -131h180q65 0 65 -61q0 -34 -22 -63t-52 -29h-309q-18 0 -33 18q-13 15 -13 30q0 4 1 8z" />
<glyph unicode="&#xca;" horiz-adv-x="483" d="M537 1210l98 -308q2 -7 2 -14q0 -24 -22.5 -42.5t-49.5 -18.5q-40 0 -53 42l-70 236l-184 -244q-26 -35 -66 -35q-28 0 -43 16q-8 9 -8 19t8 20l253 345q31 44 68 44q48 0 67 -60zM142 669q7 32 31.5 52.5t56.5 20.5h270q60 0 60 -66q0 -36 -22 -66t-57 -30h-195 l-31 -143h180q50 0 50 -57q0 -36 -21.5 -66t-54.5 -30h-186l-28 -131h180q65 0 65 -61q0 -34 -22 -63t-52 -29h-309q-18 0 -33 18q-13 15 -13 30q0 4 1 8z" />
<glyph unicode="&#xcb;" horiz-adv-x="483" d="M296 989q64 0 64 -65q0 -37 -26 -66q-28 -32 -73 -32q-64 0 -64 62q0 38 27.5 69.5t71.5 31.5zM501 828q-63 0 -63 61q0 35 26 63.5t69 28.5q64 0 64 -59q0 -35 -25 -63q-29 -31 -71 -31zM142 669q7 32 31.5 52.5t56.5 20.5h270q60 0 60 -66q0 -36 -22 -66t-57 -30h-195 l-31 -143h180q50 0 50 -57q0 -36 -21.5 -66t-54.5 -30h-186l-28 -131h180q65 0 65 -61q0 -34 -22 -63t-52 -29h-309q-18 0 -33 18q-13 15 -13 30q0 4 1 8z" />
<glyph unicode="&#xcc;" horiz-adv-x="241" d="M481 1083l-158 -221q-26 -36 -66 -36q-27 0 -47.5 17.5t-20.5 45.5q0 27 22 56l135 177q30 41 79 41q28 0 47.5 -14t19.5 -35q0 -15 -11 -31zM18 86l121 568q9 41 40 66q28 21 61 21q28 0 46 -15.5t18 -43.5q0 -10 -2 -20l-122 -576q-9 -40 -38 -62.5t-61 -22.5 q-28 0 -46.5 16.5t-18.5 46.5q0 11 2 22z" />
<glyph unicode="&#xcd;" horiz-adv-x="241" d="M267 829q-11 -3 -19 -3q-36 0 -36 47q0 27 14 53.5t37 35.5l169 67q24 10 45 10q29 0 45.5 -18t16.5 -44q0 -55 -51 -72zM18 86l121 568q9 41 40 66q28 21 61 21q28 0 46 -15.5t18 -43.5q0 -10 -2 -20l-122 -576q-9 -40 -38 -62.5t-61 -22.5q-28 0 -46.5 16.5t-18.5 46.5 q0 11 2 22z" />
<glyph unicode="&#xce;" horiz-adv-x="241" d="M412 1210l98 -308q2 -7 2 -14q0 -24 -22.5 -42.5t-49.5 -18.5q-40 0 -53 42l-70 236l-184 -244q-26 -35 -66 -35q-28 0 -43 16q-8 9 -8 19t8 20l253 345q31 44 68 44q48 0 67 -60zM18 86l121 568q9 41 40 66q28 21 61 21q28 0 46 -15.5t18 -43.5q0 -10 -2 -20l-122 -576 q-9 -40 -38 -62.5t-61 -22.5q-28 0 -46.5 16.5t-18.5 46.5q0 11 2 22z" />
<glyph unicode="&#xcf;" horiz-adv-x="241" d="M171 989q64 0 64 -65q0 -37 -26 -66q-28 -32 -73 -32q-64 0 -64 62q0 38 27.5 69.5t71.5 31.5zM376 828q-63 0 -63 61q0 35 26 63.5t69 28.5q64 0 64 -59q0 -35 -25 -63q-29 -31 -71 -31zM18 86l121 568q9 41 40 66q28 21 61 21q28 0 46 -15.5t18 -43.5q0 -10 -2 -20 l-122 -576q-9 -40 -38 -62.5t-61 -22.5q-28 0 -46.5 16.5t-18.5 46.5q0 11 2 22z" />
<glyph unicode="&#xd1;" horiz-adv-x="722" d="M162 1042q35 0 114.5 -37t104.5 -37q20 0 64 29.5t58 29.5q34 0 34 -37q0 -58 -53.5 -111t-111.5 -53q-50 0 -127 36.5t-102 36.5q-24 0 -70.5 -33t-60.5 -33q-30 0 -30 43q0 63 58.5 114.5t121.5 51.5zM141 662q17 81 81 81q49 0 86 -58l239 -374l76 358q8 34 36 53 t61 19q28 0 46 -13q20 -16 20 -42q0 -8 -1 -17l-128 -599q-15 -70 -75 -70q-57 0 -89 54l-235 394l-79 -370q-8 -37 -36.5 -57.5t-61.5 -20.5q-28 0 -47 15.5t-19 44.5q0 9 2 18z" />
<glyph unicode="&#xd2;" horiz-adv-x="795" d="M762 1083l-158 -221q-26 -36 -66 -36q-27 0 -47.5 17.5t-20.5 45.5q0 27 22 56l135 177q30 41 79 41q28 0 47.5 -14t19.5 -35q0 -15 -11 -31zM526 766q144 0 221 -86q69 -78 69 -203q0 -181 -123 -328q-135 -162 -332 -162q-144 0 -222 87q-70 79 -70 205q0 181 123 327 q135 160 334 160zM395 148q113 0 186 118q53 85 53 171q0 24 -4 49q-20 118 -136 118q-118 0 -191 -118q-53 -84 -53 -169q0 -25 5 -51q23 -118 140 -118z" />
<glyph unicode="&#xd3;" horiz-adv-x="795" d="M548 829q-11 -3 -19 -3q-36 0 -36 47q0 27 14 53.5t37 35.5l169 67q24 10 45 10q29 0 45.5 -18t16.5 -44q0 -55 -51 -72zM526 766q144 0 221 -86q69 -78 69 -203q0 -181 -123 -328q-135 -162 -332 -162q-144 0 -222 87q-70 79 -70 205q0 181 123 327q135 160 334 160z M395 148q113 0 186 118q53 85 53 171q0 24 -4 49q-20 118 -136 118q-118 0 -191 -118q-53 -84 -53 -169q0 -25 5 -51q23 -118 140 -118z" />
<glyph unicode="&#xd4;" horiz-adv-x="795" d="M693 1210l98 -308q2 -7 2 -14q0 -24 -22.5 -42.5t-49.5 -18.5q-40 0 -53 42l-70 236l-184 -244q-26 -35 -66 -35q-28 0 -43 16q-8 9 -8 19t8 20l253 345q31 44 68 44q48 0 67 -60zM526 766q144 0 221 -86q69 -78 69 -203q0 -181 -123 -328q-135 -162 -332 -162 q-144 0 -222 87q-70 79 -70 205q0 181 123 327q135 160 334 160zM395 148q113 0 186 118q53 85 53 171q0 24 -4 49q-20 118 -136 118q-118 0 -191 -118q-53 -84 -53 -169q0 -25 5 -51q23 -118 140 -118z" />
<glyph unicode="&#xd5;" horiz-adv-x="795" d="M461 1042q35 0 114.5 -37t104.5 -37q20 0 64 29.5t58 29.5q34 0 34 -37q0 -58 -53.5 -111t-111.5 -53q-50 0 -127 36.5t-102 36.5q-24 0 -70.5 -33t-60.5 -33q-30 0 -30 43q0 63 58.5 114.5t121.5 51.5zM526 766q144 0 221 -86q69 -78 69 -203q0 -181 -123 -328 q-135 -162 -332 -162q-144 0 -222 87q-70 79 -70 205q0 181 123 327q135 160 334 160zM395 148q113 0 186 118q53 85 53 171q0 24 -4 49q-20 118 -136 118q-118 0 -191 -118q-53 -84 -53 -169q0 -25 5 -51q23 -118 140 -118z" />
<glyph unicode="&#xd6;" horiz-adv-x="795" d="M452 989q64 0 64 -65q0 -37 -26 -66q-28 -32 -73 -32q-64 0 -64 62q0 38 27.5 69.5t71.5 31.5zM657 828q-63 0 -63 61q0 35 26 63.5t69 28.5q64 0 64 -59q0 -35 -25 -63q-29 -31 -71 -31zM526 766q144 0 221 -86q69 -78 69 -203q0 -181 -123 -328q-135 -162 -332 -162 q-144 0 -222 87q-70 79 -70 205q0 181 123 327q135 160 334 160zM395 148q113 0 186 118q53 85 53 171q0 24 -4 49q-20 118 -136 118q-118 0 -191 -118q-53 -84 -53 -169q0 -25 5 -51q23 -118 140 -118z" />
<glyph unicode="&#xd9;" horiz-adv-x="713" d="M716 1083l-158 -221q-26 -36 -66 -36q-27 0 -47.5 17.5t-20.5 45.5q0 27 22 56l135 177q30 41 79 41q28 0 47.5 -14t19.5 -35q0 -15 -11 -31zM137 646q10 45 43 71q29 24 64 24q29 0 48 -17t19 -48q0 -10 -3 -22l-78 -367q-3 -14 -3 -28q0 -50 40 -81q36 -28 90 -28 q57 0 102 32q50 35 63 97l78 367q9 45 42 72q29 23 65 23q29 0 49 -17t20 -49q0 -10 -3 -21l-83 -391q-27 -127 -143 -204q-105 -71 -233 -71q-111 0 -182 57q-78 62 -78 174q0 36 9 76z" />
<glyph unicode="&#xda;" horiz-adv-x="713" d="M502 829q-11 -3 -19 -3q-36 0 -36 47q0 27 14 53.5t37 35.5l169 67q24 10 45 10q29 0 45.5 -18t16.5 -44q0 -55 -51 -72zM137 646q10 45 43 71q29 24 64 24q29 0 48 -17t19 -48q0 -10 -3 -22l-78 -367q-3 -14 -3 -28q0 -50 40 -81q36 -28 90 -28q57 0 102 32q50 35 63 97 l78 367q9 45 42 72q29 23 65 23q29 0 49 -17t20 -49q0 -10 -3 -21l-83 -391q-27 -127 -143 -204q-105 -71 -233 -71q-111 0 -182 57q-78 62 -78 174q0 36 9 76z" />
<glyph unicode="&#xdb;" horiz-adv-x="713" d="M648 1210l98 -308q2 -7 2 -14q0 -24 -22.5 -42.5t-49.5 -18.5q-40 0 -53 42l-70 236l-184 -244q-26 -35 -66 -35q-28 0 -43 16q-8 9 -8 19t8 20l253 345q31 44 68 44q48 0 67 -60zM137 646q10 45 43 71q29 24 64 24q29 0 48 -17t19 -48q0 -10 -3 -22l-78 -367 q-3 -14 -3 -28q0 -50 40 -81q36 -28 90 -28q57 0 102 32q50 35 63 97l78 367q9 45 42 72q29 23 65 23q29 0 49 -17t20 -49q0 -10 -3 -21l-83 -391q-27 -127 -143 -204q-105 -71 -233 -71q-111 0 -182 57q-78 62 -78 174q0 36 9 76z" />
<glyph unicode="&#xdc;" horiz-adv-x="713" d="M407 989q64 0 64 -65q0 -37 -26 -66q-28 -32 -73 -32q-64 0 -64 62q0 38 27.5 69.5t71.5 31.5zM612 828q-63 0 -63 61q0 35 26 63.5t69 28.5q64 0 64 -59q0 -35 -25 -63q-29 -31 -71 -31zM137 646q10 45 43 71q29 24 64 24q29 0 48 -17t19 -48q0 -10 -3 -22l-78 -367 q-3 -14 -3 -28q0 -50 40 -81q36 -28 90 -28q57 0 102 32q50 35 63 97l78 367q9 45 42 72q29 23 65 23q29 0 49 -17t20 -49q0 -10 -3 -21l-83 -391q-27 -127 -143 -204q-105 -71 -233 -71q-111 0 -182 57q-78 62 -78 174q0 36 9 76z" />
<glyph unicode="&#xdd;" horiz-adv-x="641" d="M679 829q-11 -3 -19 -3q-36 0 -36 47q0 27 14 53.5t37 35.5l169 67q24 10 45 10q29 0 45.5 -18t16.5 -44q0 -55 -51 -72zM308 699l92 -186l159 180q44 51 94 51q31 0 52 -20t21 -49q0 -32 -28 -62l-254 -270l-58 -273q-7 -33 -34 -51.5t-59 -18.5q-30 0 -49 15 q-22 17 -22 46q0 8 2 17l57 265l-137 267q-7 14 -7 29q0 37 35 69.5t74 32.5q41 0 62 -42z" />
<glyph unicode="&#xe0;" horiz-adv-x="624" d="M720 892l-158 -221q-26 -36 -66 -36q-27 0 -47.5 17.5t-20.5 45.5q0 27 22 56l135 177q30 41 79 41q28 0 47.5 -14t19.5 -35q0 -15 -11 -31zM380 575q29 0 65 -19q33 -17 53 -39q32 58 90 58q26 0 44 -16t18 -46q0 -10 -3 -21l-95 -451q-6 -26 -32.5 -40t-58.5 -14 q-33 0 -54 14q-17 11 -17 30q0 4 1 9q-73 -52 -145 -52q-96 0 -148 64q-47 58 -47 152q0 137 88 248q97 123 241 123zM359 413q-65 0 -108 -54q-38 -48 -38 -110q0 -44 22 -71q25 -31 71 -31q61 0 103 56q39 51 39 113q0 42 -21 68q-24 29 -68 29z" />
<glyph unicode="&#xe1;" horiz-adv-x="624" d="M506 638q-11 -3 -19 -3q-36 0 -36 47q0 27 14 53.5t37 35.5l169 67q24 10 45 10q29 0 45.5 -18t16.5 -44q0 -55 -51 -72zM380 575q29 0 65 -19q33 -17 53 -39q32 58 90 58q26 0 44 -16t18 -46q0 -10 -3 -21l-95 -451q-6 -26 -32.5 -40t-58.5 -14q-33 0 -54 14 q-17 11 -17 30q0 4 1 9q-73 -52 -145 -52q-96 0 -148 64q-47 58 -47 152q0 137 88 248q97 123 241 123zM359 413q-65 0 -108 -54q-38 -48 -38 -110q0 -44 22 -71q25 -31 71 -31q61 0 103 56q39 51 39 113q0 42 -21 68q-24 29 -68 29z" />
<glyph unicode="&#xe2;" horiz-adv-x="624" d="M651 1019l98 -308q2 -7 2 -14q0 -24 -22.5 -42.5t-49.5 -18.5q-40 0 -53 42l-70 236l-184 -244q-26 -35 -66 -35q-28 0 -43 16q-8 9 -8 19t8 20l253 345q31 44 68 44q48 0 67 -60zM380 575q29 0 65 -19q33 -17 53 -39q32 58 90 58q26 0 44 -16t18 -46q0 -10 -3 -21 l-95 -451q-6 -26 -32.5 -40t-58.5 -14q-33 0 -54 14q-17 11 -17 30q0 4 1 9q-73 -52 -145 -52q-96 0 -148 64q-47 58 -47 152q0 137 88 248q97 123 241 123zM359 413q-65 0 -108 -54q-38 -48 -38 -110q0 -44 22 -71q25 -31 71 -31q61 0 103 56q39 51 39 113q0 42 -21 68 q-24 29 -68 29z" />
<glyph unicode="&#xe3;" horiz-adv-x="624" d="M419 851q35 0 114.5 -37t104.5 -37q20 0 64 29.5t58 29.5q34 0 34 -37q0 -58 -53.5 -111t-111.5 -53q-50 0 -127 36.5t-102 36.5q-24 0 -70.5 -33t-60.5 -33q-30 0 -30 43q0 63 58.5 114.5t121.5 51.5zM380 575q29 0 65 -19q33 -17 53 -39q32 58 90 58q26 0 44 -16 t18 -46q0 -10 -3 -21l-95 -451q-6 -26 -32.5 -40t-58.5 -14q-33 0 -54 14q-17 11 -17 30q0 4 1 9q-73 -52 -145 -52q-96 0 -148 64q-47 58 -47 152q0 137 88 248q97 123 241 123zM359 413q-65 0 -108 -54q-38 -48 -38 -110q0 -44 22 -71q25 -31 71 -31q61 0 103 56 q39 51 39 113q0 42 -21 68q-24 29 -68 29z" />
<glyph unicode="&#xe4;" horiz-adv-x="624" d="M410 798q64 0 64 -65q0 -37 -26 -66q-28 -32 -73 -32q-64 0 -64 62q0 38 27.5 69.5t71.5 31.5zM615 637q-63 0 -63 61q0 35 26 63.5t69 28.5q64 0 64 -59q0 -35 -25 -63q-29 -31 -71 -31zM380 575q29 0 65 -19q33 -17 53 -39q32 58 90 58q26 0 44 -16t18 -46 q0 -10 -3 -21l-95 -451q-6 -26 -32.5 -40t-58.5 -14q-33 0 -54 14q-17 11 -17 30q0 4 1 9q-73 -52 -145 -52q-96 0 -148 64q-47 58 -47 152q0 137 88 248q97 123 241 123zM359 413q-65 0 -108 -54q-38 -48 -38 -110q0 -44 22 -71q25 -31 71 -31q61 0 103 56q39 51 39 113 q0 42 -21 68q-24 29 -68 29z" />
<glyph unicode="&#xe5;" horiz-adv-x="624" d="M565 1020q78 0 120 -43q36 -37 36 -99q0 -89 -64 -163q-70 -80 -167 -80q-71 0 -110 44q-34 41 -34 105q0 88 58 158q64 78 161 78zM545 906q-42 0 -70.5 -34t-28.5 -72q0 -60 60 -60q49 0 79 32q27 29 27 67q0 28 -16 47q-19 20 -51 20zM380 575q29 0 65 -19 q33 -17 53 -39q32 58 90 58q26 0 44 -16t18 -46q0 -10 -3 -21l-95 -451q-6 -26 -32.5 -40t-58.5 -14q-33 0 -54 14q-17 11 -17 30q0 4 1 9q-73 -52 -145 -52q-96 0 -148 64q-47 58 -47 152q0 137 88 248q97 123 241 123zM359 413q-65 0 -108 -54q-38 -48 -38 -110 q0 -44 22 -71q25 -31 71 -31q61 0 103 56q39 51 39 113q0 42 -21 68q-24 29 -68 29z" />
<glyph unicode="&#xe8;" horiz-adv-x="618" d="M639 892l-158 -221q-26 -36 -66 -36q-27 0 -47.5 17.5t-20.5 45.5q0 27 22 56l135 177q30 41 79 41q28 0 47.5 -14t19.5 -35q0 -15 -11 -31zM60 283q29 137 135 218q95 73 208 73q92 0 151 -50q64 -55 64 -150q0 -32 -7 -67q-16 -75 -66 -75h-317q6 -102 107 -102 q36 0 75 14q35 12 53 28q28 24 55 24q23 0 37 -16t14 -40q0 -58 -72 -100q-90 -52 -187 -52q-108 0 -181 61q-76 65 -76 170q0 31 7 64zM249 347h211q-2 45 -27 71q-23 23 -58 23t-68 -24q-36 -25 -58 -70z" />
<glyph unicode="&#xe9;" horiz-adv-x="618" d="M425 638q-11 -3 -19 -3q-36 0 -36 47q0 27 14 53.5t37 35.5l169 67q24 10 45 10q29 0 45.5 -18t16.5 -44q0 -55 -51 -72zM60 283q29 137 135 218q95 73 208 73q92 0 151 -50q64 -55 64 -150q0 -32 -7 -67q-16 -75 -66 -75h-317q6 -102 107 -102q36 0 75 14q35 12 53 28 q28 24 55 24q23 0 37 -16t14 -40q0 -58 -72 -100q-90 -52 -187 -52q-108 0 -181 61q-76 65 -76 170q0 31 7 64zM249 347h211q-2 45 -27 71q-23 23 -58 23t-68 -24q-36 -25 -58 -70z" />
<glyph unicode="&#xea;" horiz-adv-x="618" d="M570 1019l98 -308q2 -7 2 -14q0 -24 -22.5 -42.5t-49.5 -18.5q-40 0 -53 42l-70 236l-184 -244q-26 -35 -66 -35q-28 0 -43 16q-8 9 -8 19t8 20l253 345q31 44 68 44q48 0 67 -60zM60 283q29 137 135 218q95 73 208 73q92 0 151 -50q64 -55 64 -150q0 -32 -7 -67 q-16 -75 -66 -75h-317q6 -102 107 -102q36 0 75 14q35 12 53 28q28 24 55 24q23 0 37 -16t14 -40q0 -58 -72 -100q-90 -52 -187 -52q-108 0 -181 61q-76 65 -76 170q0 31 7 64zM249 347h211q-2 45 -27 71q-23 23 -58 23t-68 -24q-36 -25 -58 -70z" />
<glyph unicode="&#xeb;" horiz-adv-x="618" d="M329 798q64 0 64 -65q0 -37 -26 -66q-28 -32 -73 -32q-64 0 -64 62q0 38 27.5 69.5t71.5 31.5zM534 637q-63 0 -63 61q0 35 26 63.5t69 28.5q64 0 64 -59q0 -35 -25 -63q-29 -31 -71 -31zM60 283q29 137 135 218q95 73 208 73q92 0 151 -50q64 -55 64 -150q0 -32 -7 -67 q-16 -75 -66 -75h-317q6 -102 107 -102q36 0 75 14q35 12 53 28q28 24 55 24q23 0 37 -16t14 -40q0 -58 -72 -100q-90 -52 -187 -52q-108 0 -181 61q-76 65 -76 170q0 31 7 64zM249 347h211q-2 45 -27 71q-23 23 -58 23t-68 -24q-36 -25 -58 -70z" />
<glyph unicode="&#xec;" horiz-adv-x="262" d="M492 1059l-158 -221q-26 -36 -66 -36q-27 0 -47.5 17.5t-20.5 45.5q0 27 22 56l135 177q30 41 79 41q28 0 47.5 -14t19.5 -35q0 -15 -11 -31zM256 742q72 0 72 -68q0 -41 -29 -73q-32 -35 -80 -35q-40 0 -61 20t-21 50q0 40 33 73t86 33zM35 89l78 369q9 42 39 68 q27 22 59 22q60 0 60 -64q0 -12 -3 -26l-78 -366q-9 -44 -37.5 -68t-59.5 -24q-26 0 -43.5 16.5t-17.5 47.5q0 12 3 25z" />
<glyph unicode="&#xed;" horiz-adv-x="262" d="M278 805q-11 -3 -19 -3q-36 0 -36 47q0 27 14 53.5t37 35.5l169 67q24 10 45 10q29 0 45.5 -18t16.5 -44q0 -55 -51 -72zM256 742q72 0 72 -68q0 -41 -29 -73q-32 -35 -80 -35q-40 0 -61 20t-21 50q0 40 33 73t86 33zM35 89l78 369q9 42 39 68q27 22 59 22q60 0 60 -64 q0 -12 -3 -26l-78 -366q-9 -44 -37.5 -68t-59.5 -24q-26 0 -43.5 16.5t-17.5 47.5q0 12 3 25z" />
<glyph unicode="&#xee;" horiz-adv-x="262" d="M423 1186l98 -308q2 -7 2 -14q0 -24 -22.5 -42.5t-49.5 -18.5q-40 0 -53 42l-70 236l-184 -244q-26 -35 -66 -35q-28 0 -43 16q-8 9 -8 19t8 20l253 345q31 44 68 44q48 0 67 -60zM256 742q72 0 72 -68q0 -41 -29 -73q-32 -35 -80 -35q-40 0 -61 20t-21 50q0 40 33 73 t86 33zM35 89l78 369q9 42 39 68q27 22 59 22q60 0 60 -64q0 -12 -3 -26l-78 -366q-9 -44 -37.5 -68t-59.5 -24q-26 0 -43.5 16.5t-17.5 47.5q0 12 3 25z" />
<glyph unicode="&#xef;" horiz-adv-x="262" d="M182 965q64 0 64 -65q0 -37 -26 -66q-28 -32 -73 -32q-64 0 -64 62q0 38 27.5 69.5t71.5 31.5zM387 804q-63 0 -63 61q0 35 26 63.5t69 28.5q64 0 64 -59q0 -35 -25 -63q-29 -31 -71 -31zM256 742q72 0 72 -68q0 -41 -29 -73q-32 -35 -80 -35q-40 0 -61 20t-21 50 q0 40 33 73t86 33zM35 89l78 369q9 42 39 68q27 22 59 22q60 0 60 -64q0 -12 -3 -26l-78 -366q-9 -44 -37.5 -68t-59.5 -24q-26 0 -43.5 16.5t-17.5 47.5q0 12 3 25z" />
<glyph unicode="&#xf1;" horiz-adv-x="575" d="M300 851q35 0 114.5 -37t104.5 -37q20 0 64 29.5t58 29.5q34 0 34 -37q0 -58 -53.5 -111t-111.5 -53q-50 0 -127 36.5t-102 36.5q-24 0 -70.5 -33t-60.5 -33q-30 0 -30 43q0 63 58.5 114.5t121.5 51.5zM106 497q7 36 36 58q25 19 56 19q27 0 45 -15.5t18 -42.5 q0 -9 -2 -19q55 77 163 77q78 0 125 -44q40 -37 40 -92q0 -18 -4 -37l-67 -313q-9 -42 -39 -67q-27 -21 -60 -21q-28 0 -47 16.5t-19 47.5q0 10 2 21l58 274q2 7 2 13q0 25 -20.5 39.5t-50.5 14.5q-37 0 -66 -20q-33 -23 -42 -63l-52 -247q-10 -45 -39.5 -70.5t-61.5 -25.5 q-27 0 -45.5 18t-18.5 51q0 12 3 27z" />
<glyph unicode="&#xf2;" horiz-adv-x="613" d="M635 892l-158 -221q-26 -36 -66 -36q-27 0 -47.5 17.5t-20.5 45.5q0 27 22 56l135 177q30 41 79 41q28 0 47.5 -14t19.5 -35q0 -15 -11 -31zM399 575q101 0 157 -69q51 -63 51 -161q0 -136 -90 -240q-100 -117 -262 -117q-100 0 -154 65q-49 59 -49 153q0 137 91 247 q102 122 256 122zM342 410q-53 0 -91 -55q-35 -50 -35 -110q0 -96 81 -96q65 0 110 53q41 48 41 107q0 44 -25 71q-28 30 -81 30z" />
<glyph unicode="&#xf3;" horiz-adv-x="613" d="M421 638q-11 -3 -19 -3q-36 0 -36 47q0 27 14 53.5t37 35.5l169 67q24 10 45 10q29 0 45.5 -18t16.5 -44q0 -55 -51 -72zM399 575q101 0 157 -69q51 -63 51 -161q0 -136 -90 -240q-100 -117 -262 -117q-100 0 -154 65q-49 59 -49 153q0 137 91 247q102 122 256 122z M342 410q-53 0 -91 -55q-35 -50 -35 -110q0 -96 81 -96q65 0 110 53q41 48 41 107q0 44 -25 71q-28 30 -81 30z" />
<glyph unicode="&#xf4;" horiz-adv-x="613" d="M566 1019l98 -308q2 -7 2 -14q0 -24 -22.5 -42.5t-49.5 -18.5q-40 0 -53 42l-70 236l-184 -244q-26 -35 -66 -35q-28 0 -43 16q-8 9 -8 19t8 20l253 345q31 44 68 44q48 0 67 -60zM399 575q101 0 157 -69q51 -63 51 -161q0 -136 -90 -240q-100 -117 -262 -117 q-100 0 -154 65q-49 59 -49 153q0 137 91 247q102 122 256 122zM342 410q-53 0 -91 -55q-35 -50 -35 -110q0 -96 81 -96q65 0 110 53q41 48 41 107q0 44 -25 71q-28 30 -81 30z" />
<glyph unicode="&#xf5;" horiz-adv-x="613" d="M334 851q35 0 114.5 -37t104.5 -37q20 0 64 29.5t58 29.5q34 0 34 -37q0 -58 -53.5 -111t-111.5 -53q-50 0 -127 36.5t-102 36.5q-24 0 -70.5 -33t-60.5 -33q-30 0 -30 43q0 63 58.5 114.5t121.5 51.5zM399 575q101 0 157 -69q51 -63 51 -161q0 -136 -90 -240 q-100 -117 -262 -117q-100 0 -154 65q-49 59 -49 153q0 137 91 247q102 122 256 122zM342 410q-53 0 -91 -55q-35 -50 -35 -110q0 -96 81 -96q65 0 110 53q41 48 41 107q0 44 -25 71q-28 30 -81 30z" />
<glyph unicode="&#xf6;" horiz-adv-x="613" d="M325 798q64 0 64 -65q0 -37 -26 -66q-28 -32 -73 -32q-64 0 -64 62q0 38 27.5 69.5t71.5 31.5zM530 637q-63 0 -63 61q0 35 26 63.5t69 28.5q64 0 64 -59q0 -35 -25 -63q-29 -31 -71 -31zM399 575q101 0 157 -69q51 -63 51 -161q0 -136 -90 -240q-100 -117 -262 -117 q-100 0 -154 65q-49 59 -49 153q0 137 91 247q102 122 256 122zM342 410q-53 0 -91 -55q-35 -50 -35 -110q0 -96 81 -96q65 0 110 53q41 48 41 107q0 44 -25 71q-28 30 -81 30z" />
<glyph unicode="&#xf9;" horiz-adv-x="574" d="M602 892l-158 -221q-26 -36 -66 -36q-27 0 -47.5 17.5t-20.5 45.5q0 27 22 56l135 177q30 41 79 41q28 0 47.5 -14t19.5 -35q0 -15 -11 -31zM46 217l55 258q8 38 36 60q26 19 56 19q27 0 45 -15.5t18 -43.5q0 -10 -2 -20l-51 -241q-3 -11 -3 -21q0 -33 22 -51t54 -18 q36 0 66.5 23.5t39.5 66.5l50 233q9 41 38 64t62 23q28 0 47 -17t19 -48q0 -10 -3 -22l-56 -266q-25 -116 -152 -178q-78 -38 -150 -38q-41 0 -80 12q-118 35 -118 160q0 29 7 60z" />
<glyph unicode="&#xfa;" horiz-adv-x="574" d="M388 638q-11 -3 -19 -3q-36 0 -36 47q0 27 14 53.5t37 35.5l169 67q24 10 45 10q29 0 45.5 -18t16.5 -44q0 -55 -51 -72zM46 217l55 258q8 38 36 60q26 19 56 19q27 0 45 -15.5t18 -43.5q0 -10 -2 -20l-51 -241q-3 -11 -3 -21q0 -33 22 -51t54 -18q36 0 66.5 23.5 t39.5 66.5l50 233q9 41 38 64t62 23q28 0 47 -17t19 -48q0 -10 -3 -22l-56 -266q-25 -116 -152 -178q-78 -38 -150 -38q-41 0 -80 12q-118 35 -118 160q0 29 7 60z" />
<glyph unicode="&#xfb;" horiz-adv-x="574" d="M534 1019l98 -308q2 -7 2 -14q0 -24 -22.5 -42.5t-49.5 -18.5q-40 0 -53 42l-70 236l-184 -244q-26 -35 -66 -35q-28 0 -43 16q-8 9 -8 19t8 20l253 345q31 44 68 44q48 0 67 -60zM46 217l55 258q8 38 36 60q26 19 56 19q27 0 45 -15.5t18 -43.5q0 -10 -2 -20l-51 -241 q-3 -11 -3 -21q0 -33 22 -51t54 -18q36 0 66.5 23.5t39.5 66.5l50 233q9 41 38 64t62 23q28 0 47 -17t19 -48q0 -10 -3 -22l-56 -266q-25 -116 -152 -178q-78 -38 -150 -38q-41 0 -80 12q-118 35 -118 160q0 29 7 60z" />
<glyph unicode="&#xfc;" horiz-adv-x="574" d="M293 798q64 0 64 -65q0 -37 -26 -66q-28 -32 -73 -32q-64 0 -64 62q0 38 27.5 69.5t71.5 31.5zM498 637q-63 0 -63 61q0 35 26 63.5t69 28.5q64 0 64 -59q0 -35 -25 -63q-29 -31 -71 -31zM46 217l55 258q8 38 36 60q26 19 56 19q27 0 45 -15.5t18 -43.5q0 -10 -2 -20 l-51 -241q-3 -11 -3 -21q0 -33 22 -51t54 -18q36 0 66.5 23.5t39.5 66.5l50 233q9 41 38 64t62 23q28 0 47 -17t19 -48q0 -10 -3 -22l-56 -266q-25 -116 -152 -178q-78 -38 -150 -38q-41 0 -80 12q-118 35 -118 160q0 29 7 60z" />
<glyph unicode="&#xfd;" horiz-adv-x="562" d="M394 638q-11 -3 -19 -3q-36 0 -36 47q0 27 14 53.5t37 35.5l169 67q24 10 45 10q29 0 45.5 -18t16.5 -44q0 -55 -51 -72zM260 487l34 -243l144 234q47 77 109 77q53 0 53 -57q0 -37 -30 -85l-363 -581q-43 -68 -95 -68q-25 0 -42.5 17.5t-17.5 43.5q0 21 12 42l106 175 q-30 158 -68 379q-3 16 -3 30q0 48 29 77q26 27 61 27q62 0 71 -68z" />
<glyph unicode="&#xff;" horiz-adv-x="562" d="M298 798q64 0 64 -65q0 -37 -26 -66q-28 -32 -73 -32q-64 0 -64 62q0 38 27.5 69.5t71.5 31.5zM503 637q-63 0 -63 61q0 35 26 63.5t69 28.5q64 0 64 -59q0 -35 -25 -63q-29 -31 -71 -31zM260 487l34 -243l144 234q47 77 109 77q53 0 53 -57q0 -37 -30 -85l-363 -581 q-43 -68 -95 -68q-25 0 -42.5 17.5t-17.5 43.5q0 21 12 42l106 175q-30 158 -68 379q-3 16 -3 30q0 48 29 77q26 27 61 27q62 0 71 -68z" />
<glyph unicode="&#x152;" horiz-adv-x="1278" d="M937 669q7 32 31.5 52.5t56.5 20.5h270q60 0 60 -66q0 -36 -22 -66t-57 -30h-195l-31 -143h180q50 0 50 -57q0 -36 -21.5 -66t-54.5 -30h-186l-28 -131h180q65 0 65 -61q0 -34 -22 -63t-52 -29h-309q-18 0 -33 18q-13 15 -13 30q0 4 1 8zM526 766q144 0 221 -86 q69 -78 69 -203q0 -181 -123 -328q-135 -162 -332 -162q-144 0 -222 87q-70 79 -70 205q0 181 123 327q135 160 334 160zM395 148q113 0 186 118q53 85 53 171q0 24 -4 49q-20 118 -136 118q-118 0 -191 -118q-53 -84 -53 -169q0 -25 5 -51q23 -118 140 -118z" />
<glyph unicode="&#x153;" horiz-adv-x="1231" d="M673 283q29 137 135 218q95 73 208 73q92 0 151 -50q64 -55 64 -150q0 -32 -7 -67q-16 -75 -66 -75h-317q6 -102 107 -102q36 0 75 14q35 12 53 28q28 24 55 24q23 0 37 -16t14 -40q0 -58 -72 -100q-90 -52 -187 -52q-108 0 -181 61q-76 65 -76 170q0 31 7 64zM862 347 h211q-2 45 -27 71q-23 23 -58 23t-68 -24q-36 -25 -58 -70zM399 575q101 0 157 -69q51 -63 51 -161q0 -136 -90 -240q-100 -117 -262 -117q-100 0 -154 65q-49 59 -49 153q0 137 91 247q102 122 256 122zM342 410q-53 0 -91 -55q-35 -50 -35 -110q0 -96 81 -96q65 0 110 53 q41 48 41 107q0 44 -25 71q-28 30 -81 30z" />
<glyph unicode="&#x178;" horiz-adv-x="641" d="M583 989q64 0 64 -65q0 -37 -26 -66q-28 -32 -73 -32q-64 0 -64 62q0 38 27.5 69.5t71.5 31.5zM788 828q-63 0 -63 61q0 35 26 63.5t69 28.5q64 0 64 -59q0 -35 -25 -63q-29 -31 -71 -31zM308 699l92 -186l159 180q44 51 94 51q31 0 52 -20t21 -49q0 -32 -28 -62 l-254 -270l-58 -273q-7 -33 -34 -51.5t-59 -18.5q-30 0 -49 15q-22 17 -22 46q0 8 2 17l57 265l-137 267q-7 14 -7 29q0 37 35 69.5t74 32.5q41 0 62 -42z" />
<glyph unicode="&#x2c6;" horiz-adv-x="585" d="M472 709l98 -308q2 -7 2 -14q0 -24 -22.5 -42.5t-49.5 -18.5q-40 0 -53 42l-70 236l-184 -244q-26 -35 -66 -35q-28 0 -43 16q-8 9 -8 19t8 20l253 345q31 44 68 44q48 0 67 -60z" />
<glyph unicode="&#x2dc;" horiz-adv-x="629" d="M234 409q35 0 114.5 -37t104.5 -37q20 0 64 29.5t58 29.5q34 0 34 -37q0 -58 -53.5 -111t-111.5 -53q-50 0 -127 36.5t-102 36.5q-24 0 -70.5 -33t-60.5 -33q-30 0 -30 43q0 63 58.5 114.5t121.5 51.5z" />
<glyph unicode="&#x3bc;" horiz-adv-x="576" d="M165 0l-28 -132q-11 -49 -44 -78q-30 -25 -65 -25q-27 0 -44.5 16.5t-17.5 46.5q0 11 2 23l132 618q8 38 40 62q29 23 63 23q61 0 61 -63q0 -12 -3 -26l-55 -257q-2 -11 -2 -21q0 -55 63 -55q37 0 72 23.5t43 60.5l53 250q10 43 37 66t59 23q29 0 48.5 -18t19.5 -49 q0 -11 -2 -22l-87 -401q-7 -36 -36 -57t-60 -21q-59 0 -59 54q0 10 2 20q-50 -66 -149 -66q-23 0 -43 5z" />
<glyph unicode="&#x2000;" horiz-adv-x="635" />
<glyph unicode="&#x2001;" horiz-adv-x="1270" />
<glyph unicode="&#x2002;" horiz-adv-x="635" />
<glyph unicode="&#x2003;" horiz-adv-x="1270" />
<glyph unicode="&#x2004;" horiz-adv-x="423" />
<glyph unicode="&#x2005;" horiz-adv-x="317" />
<glyph unicode="&#x2006;" horiz-adv-x="211" />
<glyph unicode="&#x2007;" horiz-adv-x="211" />
<glyph unicode="&#x2008;" horiz-adv-x="158" />
<glyph unicode="&#x2009;" horiz-adv-x="254" />
<glyph unicode="&#x200a;" horiz-adv-x="70" />
<glyph unicode="&#x2010;" horiz-adv-x="483" d="M407 368q54 0 54 -56q0 -34 -23 -61q-25 -30 -62 -30h-253q-53 0 -53 54q0 34 24 63.5t61 29.5h252z" />
<glyph unicode="&#x2011;" horiz-adv-x="483" d="M407 368q54 0 54 -56q0 -34 -23 -61q-25 -30 -62 -30h-253q-53 0 -53 54q0 34 24 63.5t61 29.5h252z" />
<glyph unicode="&#x2013;" horiz-adv-x="779" d="M696 368q54 0 54 -56q0 -34 -23 -61q-25 -30 -62 -30h-551q-54 0 -54 54q0 34 24 63.5t61 29.5h551z" />
<glyph unicode="&#x2014;" horiz-adv-x="942" d="M858 368q54 0 54 -56q0 -34 -22 -61q-25 -30 -63 -30h-713q-54 0 -54 54q0 34 24 63.5t61 29.5h713z" />
<glyph unicode="&#x2018;" horiz-adv-x="354" d="M385 645l-143 -180q-36 -45 -78 -45q-26 0 -43 17t-17 43q0 33 27 68l122 153q41 51 92 51q27 0 45 -15t18 -39q0 -26 -23 -53z" />
<glyph unicode="&#x2019;" horiz-adv-x="354" d="M385 645l-143 -180q-36 -45 -78 -45q-26 0 -43 17t-17 43q0 33 27 68l122 153q41 51 92 51q27 0 45 -15t18 -39q0 -26 -23 -53z" />
<glyph unicode="&#x201a;" horiz-adv-x="319" d="M227 58l-143 -177q-34 -42 -78 -42q-26 0 -44 16t-18 41q0 31 27 65l122 155q40 51 93 51q27 0 45 -15t18 -39q0 -26 -22 -55z" />
<glyph unicode="&#x201c;" horiz-adv-x="435" d="M347 669q6 32 32 50q22 17 50 17q56 0 56 -51q0 -7 -2 -16l-40 -188q-6 -32 -32 -50q-22 -17 -50 -17q-56 0 -56 51q0 8 2 16zM102 481l40 188q7 32 31 49.5t51 17.5q58 0 58 -51q0 -8 -2 -16l-40 -188q-7 -32 -30.5 -49.5t-51.5 -17.5q-57 0 -57 51q0 8 1 16z" />
<glyph unicode="&#x201d;" horiz-adv-x="435" d="M347 669q6 32 32 50q22 17 50 17q56 0 56 -51q0 -7 -2 -16l-40 -188q-6 -32 -32 -50q-22 -17 -50 -17q-56 0 -56 51q0 8 2 16zM102 481l40 188q7 32 31 49.5t51 17.5q58 0 58 -51q0 -8 -2 -16l-40 -188q-7 -32 -30.5 -49.5t-51.5 -17.5q-57 0 -57 51q0 8 1 16z" />
<glyph unicode="&#x201e;" horiz-adv-x="585" d="M224 58l-143 -177q-34 -42 -78 -42q-26 0 -43.5 16t-17.5 41q0 31 27 65l121 155q41 51 93 51q28 0 46 -15t18 -39q0 -26 -23 -55zM492 58l-143 -177q-34 -42 -78 -42q-26 0 -43.5 16t-17.5 41q0 31 27 65l121 155q41 51 93 51q28 0 46 -15t18 -39q0 -26 -23 -55z" />
<glyph unicode="&#x2022;" horiz-adv-x="712" d="M467 742q124 0 190 -71q61 -65 61 -168q0 -144 -103 -259q-112 -127 -281 -127q-124 0 -190 71q-61 65 -61 168q0 144 103 260q112 126 281 126z" />
<glyph unicode="&#x2026;" horiz-adv-x="817" d="M138 185q71 0 71 -71q0 -43 -30 -77q-32 -38 -81 -38q-39 0 -59.5 21t-20.5 52q0 43 31 76q35 37 89 37zM405 185q72 0 72 -71q0 -43 -30 -77q-32 -38 -81 -38q-39 0 -60 21t-21 52q0 43 32 76q35 37 88 37zM673 185q71 0 71 -71q0 -43 -29 -77q-33 -38 -81 -38 q-40 0 -60.5 21t-20.5 52q0 43 32 76q35 37 88 37z" />
<glyph unicode="&#x202f;" horiz-adv-x="254" />
<glyph unicode="&#x2039;" horiz-adv-x="663" d="M160 384l403 172q24 10 46 10q28 0 45 -16.5t17 -39.5q0 -52 -68 -78l-339 -128l282 -141q44 -21 44 -60q0 -26 -21.5 -46t-53.5 -20q-25 0 -51 13l-346 171q-56 27 -56 66q0 56 98 97z" />
<glyph unicode="&#x203a;" horiz-adv-x="668" d="M249 548l346 -180q43 -22 43 -61q0 -55 -74 -86l-449 -187q-20 -9 -38 -9q-27 0 -43 15.5t-16 37.5q0 50 67 77l347 140q-84 43 -273 129q-53 25 -53 69q0 28 23.5 49.5t59.5 21.5q29 0 60 -16z" />
<glyph unicode="&#x205f;" horiz-adv-x="317" />
<glyph unicode="&#x2122;" horiz-adv-x="787" d="M577 745l19 -179l99 179q23 41 66 41t43 -45q0 -2 -16 -295q-2 -18 -16 -29t-31 -11q-35 0 -34 34l7 186l-96 -186q-17 -34 -52 -34q-34 0 -38 34l-22 182l-61 -170q-17 -46 -56 -46q-35 0 -35 29q0 5 2 12l109 290q18 48 67 48q41 0 45 -40zM241 700h-61q-24 0 -24 28 q0 18 12 33.5t32 15.5h183q37 0 37 -30q0 -17 -12 -32t-29 -15h-57l-53 -252q-9 -41 -50 -41q-16 0 -26.5 9t-7.5 24z" />
</font>
</defs>
</svg>
